<svg width="399" height="173" viewBox="0 0 399 173" fill="none" xmlns="http://www.w3.org/2000/svg">
<path d="M117.567 136.046H98.597V170.646H65.5752V136.046H0V111.097L66.512 2.35374H98.597V108.978H117.567V136.046ZM65.341 108.978V76.732C65.341 73.9075 65.4191 70.22 65.5752 65.6694C65.7313 60.9619 65.8875 56.5683 66.0436 52.4884C66.1997 48.4086 66.3559 45.6626 66.512 44.2503H65.5752C62.921 50.8408 59.9545 56.9605 56.6757 62.6095L29.0404 108.978H65.341Z" fill="#0489BA"/>
<path d="M253.131 86.6177C253.131 104.349 251.414 119.649 247.979 132.516C244.544 145.383 238.845 155.347 230.882 162.408C223.076 169.469 212.459 173 199.032 173C180.764 173 167.181 165.703 158.281 151.11C149.538 136.517 145.166 115.02 145.166 86.6177C145.166 58.5297 149.304 37.1107 157.579 22.3605C166.01 7.45351 179.827 0 199.032 0C217.455 0 231.039 7.53198 239.782 22.5959C248.681 37.503 253.131 58.8435 253.131 86.6177ZM179.125 86.6177C179.125 106.232 180.53 120.825 183.34 130.397C186.151 139.812 191.381 144.52 199.032 144.52C206.682 144.52 211.912 139.812 214.723 130.397C217.689 120.825 219.173 106.232 219.173 86.6177C219.173 67.317 217.689 52.8023 214.723 43.0735C211.912 33.3447 206.682 28.4803 199.032 28.4803C191.381 28.4803 186.151 33.3447 183.34 43.0735C180.53 52.8023 179.125 67.317 179.125 86.6177Z" fill="#0489BA"/>
<path d="M399 136.046H380.03V170.646H347.008V136.046H281.433V111.097L347.945 2.35374H380.03V108.978H399V136.046ZM346.774 108.978V76.732C346.774 73.9075 346.852 70.22 347.008 65.6694C347.164 60.9619 347.32 56.5683 347.477 52.4884C347.633 48.4086 347.789 45.6626 347.945 44.2503H347.008C344.354 50.8408 341.387 56.9605 338.109 62.6095L310.473 108.978H346.774Z" fill="#0489BA"/>
</svg>
