<svg xmlns="http://www.w3.org/2000/svg" xmlns:xlink="http://www.w3.org/1999/xlink" version="1.1" enable-background="new 0 0 1000 1000" xml:space="preserve" width="1000" height="1000" style=""><rect id="backgroundrect" width="100%" height="100%" x="0" y="0" fill="none" stroke="none"/>
<metadata> Svg Vector Icons : http://www.onlinewebfonts.com/icon </metadata>

<g class="currentLayer" style=""><title>Layer 1</title><g id="svg_1" class="selected" fill="#ffffff" fill-opacity="1"><path d="M924.9,500L990,184.6l-102.7,33.9C796.5,91.3,652.6,15.7,494.3,15.7C227.3,15.7,10,233,10,500c0,267,217.3,484.3,484.3,484.3c98.8,0,194-29.5,274.8-85.6L708,810.3c-63,43.4-136.8,66.4-213.7,66.4c-207.7,0-376.7-169-376.7-376.7c0-207.7,169-376.7,376.7-376.7c111.5,0,214,48.3,285,131.2l-94.9,31.4L924.9,500z" id="svg_2" fill="#ffffff" fill-opacity="1"/></g></g></svg>