<svg xmlns="http://www.w3.org/2000/svg" width="30" height="31" fill="none">
  <path fill="#1B1F23" fill-rule="evenodd" d="M14.982.916C6.705.916 0 7.79 0 16.277c0 6.798 4.289 12.54 10.244 14.574.75.135 1.03-.326 1.03-.73 0-.364-.018-1.574-.018-2.86-3.765.71-4.739-.941-5.038-1.805-.169-.442-.9-1.805-1.536-2.17-.524-.288-1.274-.998-.019-1.018 1.18-.019 2.023 1.114 2.304 1.575 1.348 2.323 3.502 1.67 4.363 1.267.131-.998.525-1.67.956-2.054-3.334-.384-6.817-1.71-6.817-7.585 0-1.67.58-3.053 1.535-4.129-.15-.383-.674-1.958.15-4.07 0 0 1.255-.403 4.12 1.574a13.581 13.581 0 0 1 3.746-.518c1.273 0 2.547.173 3.745.518 2.866-1.997 4.12-1.574 4.12-1.574.825 2.112.3 3.687.15 4.07.956 1.076 1.536 2.44 1.536 4.129 0 5.895-3.502 7.2-6.836 7.585.544.48 1.012 1.401 1.012 2.841 0 2.055-.019 3.706-.019 4.225 0 .403.28.883 1.03.73 5.918-2.036 10.207-7.796 10.207-14.575C29.965 7.79 23.26.916 14.982.916z" clip-rule="evenodd"/>
</svg>
