<svg width="30" height="30" viewBox="0 0 30 30" fill="none" xmlns="http://www.w3.org/2000/svg">
<path d="M7.18143 12.6335C8.01448 12.5216 8.84752 12.8076 9.43811 13.3982L10.9301 14.8902L12.3413 13.4852L10.3022 11.4523C9.98519 11.1353 9.98519 10.6193 10.3022 10.3022C10.6193 9.98519 11.1353 9.98519 11.4523 10.3022L13.4914 12.3413L14.9026 10.9363L13.4044 9.43811C12.8138 8.84752 12.5278 8.00826 12.6397 7.18143C12.8884 5.29154 12.2854 3.31462 10.8369 1.8599C9.3573 0.380316 7.33064 -0.216492 5.40966 0.0694787C5.10504 0.112996 4.98071 0.492217 5.19829 0.709803L7.11927 2.63078C8.03313 3.54464 8.03313 5.02422 7.11927 5.93187L5.93809 7.11305C5.02422 8.02691 3.54464 8.02691 2.63699 7.11305L0.709803 5.19208C0.492217 4.97449 0.119213 5.09882 0.0694787 5.40345C-0.216492 7.32442 0.380316 9.35108 1.8599 10.8307C3.31462 12.2792 5.29154 12.8822 7.18143 12.6335Z" fill="#D6E3F1"/>
<path d="M19.13 15.1637L17.7188 16.5687L26.0989 24.9489C26.416 25.2659 26.416 25.7819 26.0989 26.099C25.7819 26.416 25.2659 26.416 24.9488 26.099L16.5687 17.7188L15.1575 19.1238L23.7925 27.7589C24.8867 28.853 26.6585 28.8468 27.7526 27.7526C28.8467 26.6585 28.8467 24.8867 27.7588 23.7926L19.13 15.1637Z" fill="#D6E3F1"/>
<path d="M22.3689 9.56866H26.0927L29.8165 2.12721L27.9577 0.268402L20.5101 3.98602V7.70985L10.3892 17.7996L8.56771 15.9843L1.23195 23.3201C-0.297369 24.8494 -0.297369 27.3237 1.23195 28.853C2.76127 30.3823 5.23553 30.3823 6.76485 28.853L14.1006 21.5172L12.2418 19.6584L22.3689 9.56866Z" fill="#D6E3F1"/>
</svg>
