<svg width="33" height="30" viewBox="0 0 33 30" fill="none" xmlns="http://www.w3.org/2000/svg">
<path d="M19.881 21.1072C19.881 20.9937 19.8412 20.8801 19.7617 20.7666C19.1257 20.0054 18.6147 19.3523 18.2284 18.8076C18.4669 18.342 18.6487 17.9103 18.7733 17.5131L21.4139 17.1043C21.5164 17.0927 21.6073 17.0333 21.6867 16.9256C21.7662 16.8173 21.8055 16.7068 21.8055 16.5932V13.4414C21.8055 13.3166 21.7662 13.2057 21.6867 13.1094C21.6073 13.013 21.5107 12.9531 21.3972 12.9308L18.8075 12.5389C18.6823 12.1527 18.4894 11.6868 18.2282 11.1419C18.3984 10.8919 18.6542 10.551 18.995 10.1197C19.3356 9.68804 19.5746 9.38152 19.7105 9.19976C19.7901 9.08621 19.8298 8.97821 19.8298 8.87612C19.8298 8.56941 19.0119 7.66083 17.3769 6.15024C17.2634 6.05954 17.1442 6.01413 17.0188 6.01413C16.8828 6.01413 16.7693 6.05345 16.678 6.13329L14.6676 7.64949C14.2022 7.41105 13.7762 7.23509 13.3901 7.12118L12.9982 4.51482C12.9871 4.40127 12.9302 4.30174 12.828 4.21665C12.7257 4.1315 12.6121 4.08884 12.4871 4.08884H9.31863C9.05746 4.08884 8.8871 4.22512 8.80762 4.49763C8.67122 5.02016 8.54072 5.89485 8.41578 7.12118C7.9275 7.28014 7.49024 7.46189 7.10412 7.66632L5.14506 6.13323C5.03151 6.05357 4.91229 6.01407 4.78728 6.01407C4.57122 6.01407 4.12268 6.34906 3.44131 7.01926C2.75983 7.68923 2.29393 8.19463 2.04427 8.5354C1.96468 8.6264 1.92511 8.73995 1.92511 8.87624C1.92511 8.97833 1.96462 9.09188 2.04427 9.21683C2.68017 9.97797 3.19118 10.631 3.57742 11.1759C3.33898 11.6418 3.15735 12.0731 3.03252 12.4706L0.391849 12.8792C0.289516 12.8906 0.198759 12.9501 0.11916 13.0578C0.0397398 13.1659 0 13.2765 0 13.39V16.5417C0 16.6667 0.0397398 16.7773 0.11916 16.8737C0.198759 16.9705 0.295185 17.0243 0.408974 17.0356L2.99839 17.4445C3.13467 17.8759 3.33361 18.3417 3.59478 18.8414C3.41303 19.0915 3.14625 19.438 2.79414 19.8807C2.44179 20.3239 2.20908 20.6248 2.09559 20.7837C2.01611 20.8972 1.97631 21.0055 1.97631 21.1072C1.97631 21.4143 2.79414 22.3226 4.42956 23.8333C4.54311 23.9239 4.66221 23.969 4.78734 23.969C4.93496 23.969 5.04851 23.9296 5.12793 23.85L7.13813 22.334C7.60362 22.5725 8.02954 22.7483 8.41584 22.8619L8.80768 25.4685C8.8189 25.582 8.87583 25.6817 8.97792 25.7666C9.08014 25.8518 9.19369 25.8943 9.31869 25.8943H12.4871C12.7485 25.8943 12.9187 25.7581 12.9983 25.4855C13.1346 24.9515 13.2651 24.0714 13.3901 22.8447C13.8443 22.709 14.2815 22.5324 14.7018 22.3169L16.6609 23.85C16.7744 23.9296 16.8937 23.969 17.0187 23.969C17.2345 23.969 17.6805 23.6313 18.3562 22.9552C19.0316 22.2799 19.5003 21.7712 19.7617 21.4306C19.8412 21.3514 19.881 21.2436 19.881 21.1072ZM13.9863 18.0753C13.1347 18.9268 12.1068 19.3527 10.903 19.3527C9.69897 19.3527 8.67104 18.9267 7.81944 18.0753C6.96772 17.2234 6.5418 16.1954 6.5418 14.9916C6.5418 13.7878 6.96772 12.7599 7.81944 11.9082C8.67104 11.0564 9.69903 10.6306 10.903 10.6306C12.1068 10.6306 13.1347 11.0563 13.9863 11.9082C14.8382 12.7599 15.264 13.7878 15.264 14.9916C15.264 16.1954 14.8383 17.2234 13.9863 18.0753Z" fill="#D6E3F1"/>
<path d="M30.1705 21.9935C30.0231 21.6643 29.8526 21.369 29.6596 21.1076C30.239 19.824 30.5283 19.0403 30.5283 18.7565C30.5283 18.7116 30.5061 18.6715 30.4603 18.6375C29.0971 17.8426 28.3932 17.445 28.3477 17.445L28.2456 17.4792C27.78 17.9451 27.2573 18.5809 26.6783 19.3873C26.4513 19.3647 26.2812 19.353 26.1676 19.353C26.0537 19.353 25.8836 19.3647 25.6563 19.3873C25.4979 19.1486 25.2022 18.7651 24.7707 18.2373C24.3393 17.7094 24.0779 17.445 23.987 17.445C23.9643 17.445 23.794 17.5359 23.4759 17.718C23.1579 17.8998 22.8229 18.0925 22.4708 18.2974C22.1184 18.5022 21.9201 18.6153 21.8746 18.6381C21.8288 18.672 21.8063 18.7121 21.8063 18.757C21.8063 19.0413 22.0959 19.8244 22.675 21.1081C22.4823 21.3695 22.3117 21.6647 22.1641 21.9937C20.4717 22.1638 19.6256 22.3401 19.6256 22.5218V24.9066C19.6256 25.0884 20.4717 25.2644 22.1641 25.4347C22.3001 25.7415 22.4707 26.0367 22.675 26.3201C22.0959 27.6038 21.8063 28.3875 21.8063 28.6712C21.8063 28.7166 21.8288 28.7566 21.8746 28.7905C23.2599 29.5969 23.9643 30 23.987 30C24.0778 30 24.3392 29.7331 24.7707 29.1993C25.2022 28.6654 25.4975 28.2796 25.6563 28.0411C25.8834 28.0634 26.0537 28.0748 26.1676 28.0748C26.2811 28.0748 26.4513 28.0634 26.6783 28.0411C26.837 28.2796 27.1325 28.6654 27.5639 29.1993C27.9954 29.7331 28.2566 30 28.3477 30C28.3704 30 29.0749 29.5967 30.4603 28.7905C30.5061 28.7566 30.5283 28.7168 30.5283 28.6712C30.5283 28.3874 30.2386 27.6037 29.6596 26.3201C29.8641 26.0367 30.0343 25.7415 30.1705 25.4347C31.8629 25.2644 32.7091 25.0884 32.7091 24.9066V22.5218C32.7091 22.34 31.8629 22.1638 30.1705 21.9935ZM27.7087 25.2557C27.2834 25.6817 26.7692 25.8951 26.1672 25.8951C25.565 25.8951 25.0511 25.6817 24.6255 25.2557C24.1995 24.8297 23.9863 24.316 23.9863 23.714C23.9863 23.1237 24.2024 22.6122 24.634 22.1809C25.0655 21.7495 25.5766 21.5336 26.1671 21.5336C26.7575 21.5336 27.269 21.7492 27.7006 22.1809C28.1319 22.6122 28.348 23.1237 28.348 23.714C28.3476 24.316 28.1348 24.8297 27.7087 25.2557Z" fill="#D6E3F1"/>
<path d="M30.1705 4.54854C30.0231 4.21917 29.8526 3.92392 29.6596 3.66251C30.239 2.37932 30.5283 1.59562 30.5283 1.31171C30.5283 1.26648 30.5061 1.22656 30.4603 1.19243C29.0971 0.397458 28.3932 0 28.3477 0L28.2456 0.0340116C27.78 0.49991 27.2573 1.13575 26.6783 1.94206C26.4513 1.91951 26.2812 1.90805 26.1676 1.90805C26.0537 1.90805 25.8836 1.91951 25.6563 1.94206C25.4979 1.70356 25.2022 1.32031 24.7707 0.792231C24.3393 0.264037 24.0779 5.96367e-05 23.987 5.96367e-05C23.9643 5.96367e-05 23.794 0.0908168 23.4759 0.272689C23.1579 0.454621 22.8229 0.647592 22.4708 0.852079C22.1184 1.05663 21.9201 1.17012 21.8746 1.19267C21.8288 1.22674 21.8063 1.26648 21.8063 1.31195C21.8063 1.59586 22.0959 2.37962 22.675 3.66287C22.4823 3.92422 22.3117 4.2194 22.1641 4.54878C20.4717 4.71902 19.6256 4.89498 19.6256 5.07673V7.46178C19.6256 7.64341 20.4717 7.81956 22.1641 7.98974C22.3001 8.29626 22.4707 8.59168 22.675 8.87565C22.0959 10.1591 21.8063 10.9425 21.8063 11.2266C21.8063 11.2717 21.8288 11.3117 21.8746 11.3457C23.2599 12.152 23.9643 12.5552 23.987 12.5552C24.0778 12.5552 24.3392 12.2884 24.7707 11.7546C25.2022 11.2207 25.4975 10.8348 25.6563 10.5962C25.8834 10.6187 26.0537 10.6302 26.1676 10.6302C26.2811 10.6302 26.4513 10.6187 26.6783 10.5962C26.837 10.8348 27.1325 11.2207 27.5639 11.7546C27.9954 12.2884 28.2566 12.5552 28.3477 12.5552C28.3704 12.5552 29.0749 12.152 30.4603 11.3457C30.5061 11.3117 30.5283 11.2719 30.5283 11.2266C30.5283 10.9425 30.2386 10.1591 29.6596 8.87565C29.8641 8.59168 30.0343 8.29644 30.1705 7.98974C31.8629 7.8195 32.7091 7.64341 32.7091 7.46178V5.07673C32.7091 4.89498 31.8629 4.71896 30.1705 4.54854ZM27.7087 7.81091C27.2834 8.23689 26.7692 8.44985 26.1672 8.44985C25.565 8.44985 25.0511 8.23689 24.6255 7.81091C24.1995 7.38517 23.9863 6.87117 23.9863 6.26923C23.9863 5.67868 24.2024 5.16749 24.634 4.7359C25.0655 4.30431 25.5766 4.08849 26.1671 4.08849C26.7575 4.08849 27.269 4.30455 27.7006 4.7359C28.1319 5.16743 28.348 5.67868 28.348 6.26923C28.3476 6.87117 28.1348 7.38517 27.7087 7.81091Z" fill="#D6E3F1"/>
</svg>
