<svg xmlns="http://www.w3.org/2000/svg" width="34" height="34" fill="none">
  <path stroke="#D6E3F1" stroke-width="3" d="M17 22.375c-2.944 0-5.375-2.431-5.375-5.375s2.431-5.375 5.375-5.375 5.375 2.431 5.375 5.375-2.431 5.375-5.375 5.375z"/>
  <path stroke="#D6E3F1" stroke-width="3" d="M19.143 32h-4.286l-1.197-3.655a15.05 15.05 0 0 1-2.332-.946L7.86 29.164l-3.025-3.025L6.6 22.672c-.378-.756-.756-1.512-.946-2.332L2 19.143v-4.286l3.655-1.197c.253-.82.568-1.576.946-2.332L4.836 7.86l3.025-3.025L11.328 6.6c.756-.378 1.512-.756 2.332-.946L14.857 2h4.286l1.197 3.655c.82.253 1.576.568 2.332.946l3.467-1.765 3.025 3.025-1.765 3.467c.378.756.756 1.512.945 2.332L32 14.857v4.286l-3.655 1.197a15.05 15.05 0 0 1-.946 2.332l1.765 3.467-3.025 3.025-3.467-1.765c-.756.378-1.512.756-2.332.945L19.143 32z"/>
</svg>
