<svg xmlns="http://www.w3.org/2000/svg" width="30" height="40" fill="none">
  <path fill="#fff" fill-rule="evenodd" stroke="#D6E3F1" d="M28.43 19.555c0 7.63-6.047 13.814-13.505 13.814-7.459 0-13.505-6.185-13.505-13.814 0-7.629 6.046-13.814 13.505-13.814 7.458 0 13.505 6.185 13.505 13.814z" clip-rule="evenodd"/>
  <path fill="#fff" fill-rule="evenodd" d="M20.61 19.632l-2.059.308-2.778.31-1.8.05-1.75-.05-1.337-.413-1.184-1.286-.926-2.623-.206-.567-1.234-.411-.72-1.183-.515-1.698.566-1.492 1.337-.463 1.08.514.515 1.132.618-.103.206-.257-.206-1.183-.052-1.492.309-2.058-.012-1.176.938-1.5 1.646-1.183 2.882-1.234 3.19.463 2.777 2.006 1.287 2.058.823 1.492.206 3.704-.618 3.19-1.132 2.83-1.08 1.492" clip-rule="evenodd"/>
  <path fill="#fff" fill-rule="evenodd" d="M18.86 28.532l-7.357.309v1.235l.617 4.321-.308.36-5.145-1.749-.36-.617-.515-5.814L4.61 23.08l-.257-.823 4.116-2.83 1.286-.515 1.132 1.39.977.874 1.132.36.514.155.618 2.675.463.566 1.183-.412-.823 1.595 4.476 2.11-.566.308zM6.667 10.577l1.338-.463 1.08.514.515 1.132.617-.103.154-.617-.308-1.183.308-2.83-.257-1.543.926-1.08 2.006-1.596-.566-.771-2.83 1.389-1.182.926-.67 1.44-1.028 1.39-.309 1.646.206 1.749z" clip-rule="evenodd"/>
  <path fill="#fff" fill-rule="evenodd" d="M8.776 5.74s.772-1.903 3.859-2.829c3.087-.926.154-.669.154-.669L9.445 3.53 8.16 4.815l-.566 1.029 1.183-.103zM7.233 10.217S6.153 6.615 10.268 6.1l-.154-.617-2.83.668-.823 2.676.206 1.749.566-.36z" clip-rule="evenodd"/>
  <path fill="#D6E3F1" fill-rule="evenodd" d="M18.346 14.024s.12-1.56.54-1.44c.42.12.42.54.42.54s-1.02.66-.96.9z" clip-rule="evenodd"/>
  <path fill="#fff" fill-rule="evenodd" d="M19.837 28.584l2.882-.155s1.183-2.984 1.183-3.138c0-.154 1.029-4.322 1.029-4.322l-2.315-2.418-.463-.411-1.235 1.235v4.784l-1.08 4.425zM13.185 38.72l-1.065-4.323-.53-3.19-.087-2.366 4.82-.257h3L21.5 31.5l-1.986 6.652-.051.772-3.91.309-2.367-.515z" clip-rule="evenodd"/>
  <path fill="#fff" fill-rule="evenodd" d="M21.777 32.854l2.007-.566 3.807-.205.566-1.75-1.03-3.035-1.182-.154-1.647.514-1.58.771-.838-.154-.653.257" clip-rule="evenodd"/>
  <path fill="#fff" d="M13.649 20.404l-1.426-.155-1.337-.412v.463l.653.721 2.058.926"/>
  <path fill="#fff" fill-rule="evenodd" d="M19.77 22.925s-.36-.515-.102-.669c.257-.154.514 0 .669-.257.154-.257 0-.412.051-.72.051-.31.309-.36.566-.412.257-.052.978-.154 1.08.103l-.308-.926-.618-.206-1.955 1.132-.103.566v1.132M14.369 24.623a178.05 178.05 0 0 0-.2-2.407c-.11-1.198.287-.989 1.326-.989.158 0 .976.19 1.034.309.281.573-.469.445.324.878.669.364 1.85-.222 1.58-1.033-.151-.18-.788-.056-1.016-.174l-1.206-.625c-.511-.265-1.693-.652-2.239-.282-1.381.94.088 3.287.58 4.267" clip-rule="evenodd"/>
  <path fill="#D6E3F1" fill-rule="evenodd" d="M15.723 6.395c-1.403-.327-2.1.586-2.525 1.534-.379-.092-.228-.608-.132-.871.25-.69 1.262-1.61 2.089-1.485.356.054.837.379.568.822zM22.555 7.992l.066.002c.317.658.591 1.356.991 1.937-.268.624-2.028 1.176-2 .056.38-.167 1.037-.034 1.375-.247-.195-.535-.477-.991-.432-1.748zM16.44 8.009c.301.55.399 1.13.826 1.546.193.188.567.417.382.938-.044.123-.36.397-.544.451-.668.197-2.225.04-1.697-.792.552.026 1.295.359 1.708-.042-.317-.507-.883-1.51-.675-2.101zM22.304 13.61c-1.006.647-2.128 1.35-3.776 1.186-.352-.306-.487-.987-.144-1.437.178.306.066.869.562.954.935.16 2.024-.572 2.697-.828.417-.704-.036-.962-.412-1.415-.77-.928-1.802-2.077-1.764-3.465.311-.226.338.344.382.447.402.94 1.413 2.143 2.151 2.948.181.198.48.388.513.52.096.38-.249.837-.21 1.09zM9.041 12.93c-.315-.18-.39-.973-.76-.995-.53-.032-.433 1.028-.43 1.648-.365-.33-.429-1.348-.161-1.87-.305-.15-.441.164-.61.275.217-1.579 2.31-.732 1.961.942zM22.945 14.268c-.469.891-1.131 1.873-2.505 1.901-.028-.287-.05-.726.001-.899 1.05-.1 1.7-.636 2.504-1.002zM16.361 14.846c.877.46 2.487.51 3.679.475.064.261.062.584.064.902-1.53.076-3.341-.303-3.743-1.377zM16.195 15.705c.606 1.522 2.689 1.347 4.445 1.305-.077.197-.245.43-.453.515-.563.229-2.115.403-2.897-.012-.495-.264-.814-.859-1.085-1.208-.131-.168-.784-.599-.01-.6z" clip-rule="evenodd"/>
  <path fill="#fff" fill-rule="evenodd" d="M22.23 24.099c-.71 1.218-1.39 2.469-2.235 3.543.354-1.04.505-2.78.559-4.108.74-.346 1.374.078 1.677.565z" clip-rule="evenodd"/>
  <path fill="#D6E3F1" fill-rule="evenodd" d="M26.058 28.477c-.796.159-1.356.933-2.133.883.427-.602 1.175-.855 2.133-.883zM26.41 29.723c-.65.068-1.412.173-2.07.12.311-.477 1.512-.313 2.07-.12zM26.634 30.797c-.73.016-1.636.002-2.33-.057.41-.44 1.857-.163 2.33.057z" clip-rule="evenodd"/>
  <path fill="#fff" fill-rule="evenodd" d="M15.299 25.928c.23-.994 1.128-1.509 1.945-2.056.842 1.07 1.355 2.445 1.919 3.771-1.333-.401-2.695-1.053-3.864-1.715z" clip-rule="evenodd"/>
  <path fill="#D6E3F1" fill-rule="evenodd" d="M19.987 33.87c-.034.813.08 2.116.118 2.969.54 0 .772-.118 1.176-.254.045-1.004-.318-1.932-.423-2.848-.213-.057-.605.15-.87.133zm-8.414-4.622c.357 3.275.873 6.029 1.82 8.93 2.1.637 4.633.693 6.49.117-.341-1.637-.192-3.63-.392-5.377-.15-1.313-.073-2.634-.28-3.974-2.25-.468-5.43-.11-7.638.304zm8.17-.283c-.018 1.406.064 2.794.171 4.203.54-.081.907-.136 1.409-.246-.163-1.356-.143-2.881-.475-4.081-.384.004-.721-.005-1.104.124zm2.741-.227c-.256-.059-.555-.002-.8.002.116 1.147.395 2.413.493 3.616.386.012.591-.17.909-.23.017-1.057-.093-2.513-.602-3.388zm4.15 3.791c.803-.195 1.308-1.179 1.083-2.19-.15-.679-.419-1.957-.706-2.392-.213-.321-.789-.742-1.248-.447-.748.479-2.066.618-2.611 1.197.273.91.358 2.162.47 3.316.935.058 2.085-.258 2.862.077-.543.176-1.247.177-1.715.433.383.185 1.28.148 1.865.006zm-7.471-4.886c-.564-1.327-1.077-2.702-1.92-3.771-.816.547-1.715 1.062-1.944 2.056 1.169.661 2.53 1.313 3.864 1.715zm1.39-4.109c-.053 1.327-.204 3.068-.558 4.108.844-1.074 1.525-2.325 2.236-3.543-.303-.487-.937-.911-1.677-.565zm-1.576-.56c-.32-.035-.59.367-1.006.194-.096.105-.182.219-.28.322.919 1.106 1.336 2.676 2.045 3.976.38-1.25.337-2.617.42-3.98-.522.033-.813-.473-1.179-.512zm-1.014-1.338c-.034.379.054.503.13.937 1.246.39 1.029-1.71-.13-.937zm-1.381-.454c-.537-.293-1.343-.612-2.036-.745-.86-.164-.779 1.172-.742 1.97.028.631.356 1.299.499 1.718.067.196.082.404.25.442.295.07 1.271-.321 1.55-.473.588-.32 1.044-.83 1.544-1.172l.02-.499c-.301-.15-.648-.256-1.09-.275.3-.15.74-.148 1.012-.327l.008-.2c-.497-.038-.687-.26-1.015-.439zm-5.126-.931c-.446.452 1.249 1.069 1.789 1.102-.003-.286.163-.556.13-.761-.642-.113-1.484-.039-1.92-.341zm5.487.212c-.002.044-.06.028-.07.064.574.448 1 .541 1.78.502.351-.255.663-.553 1.03-.793-.844.076-1.905.6-2.74.227zm5.036 1.528c-.024-.503-.156-1.536-.466-1.717-.652-.38-1.81.768-2.302.944.054.153.142.275.149.471.29-.071.644-.022.895.102-.29.032-.613.03-.806.169-.07.203.017.481-.03.764.691.195 1.48.299 2.353.325.17-.221.227-.642.207-1.058zm-11.273-1.303c-.14-.1-1.086-1.33-1.216-1.28-1.712.676-3.313 1.843-4.744 2.948 1.364 2.927 1.915 6.513 2.012 9.97 1.563.73 2.935 1.783 5.056 1.893-.246-1.736-.47-3.284-.609-4.919-.533-.224-1.297.01-1.796-.07-.004-.6.762-.263.825-.667.049-.305-.42-.328-.268-.81.39.142.595.455 1.01.573.38-.832-.005-2.302.05-2.996.01-.13.065-.723.357-.619.258.092-.015 1.575.013 2.232.026.606-.073 1.192.173 1.572a58.54 58.54 0 0 1 6.348-.52c-.488-.21-1.068-.408-1.703-.765-.344-.195-1.43-.599-1.529-.926-.159-.52.416-.798.514-1.245-1.034.564-1.236-.541-1.48-1.324-.222-.709-.348-1.238-.403-1.647-.89-.425-1.843-.855-2.61-1.4zm10.369-1.13c1.426-.692 1.683 2.585 1.124 3.64.086.316.384.436.505.72-.796 1.425-1.68 2.756-2.493 4.166.605-.376 1.468-.067 2.179-.349.26-.103.448-.698.645-1.174.54-1.31 1.11-2.96 1.362-4.21.057-.285.213-.905.178-1.159-.062-.454-.678-.79-.991-1.07-.577-.519-.94-.975-1.542-1.46-.244.36-.768.603-.968.896zM7.443 6.906c-.68.748-.537 2.15-.455 3.147 1.229-.773 2.86.06 2.844 1.376.587-.016.22-.733.113-1.195-.347-1.509.585-3.148.042-4.528-1.052.08-1.916.51-2.544 1.2zm4.864-4.34c-1.539.436-3.511 1.554-4.143 2.936.49-.071.83-.318 1.312-.348.183-.012.422.076.632.024.418-.104.77-1.041 1.086-1.39.308-.34.677-.486.93-.797.163-.078.403-.073.412-.317-.07-.075-.144-.133-.229-.109zm8.011.41c-1.597-.902-4.3-1.58-6-.732-1.371.683-3.224 1.814-3.856 3.247.59 1.383-.175 2.65-.224 4.055-.026.747.352 1.4.381 2.213-.202.333-.819.374-1.246.351-.144-.72-.396-1.528-1.137-1.61-1.048-.114-1.815.754-1.862 1.66-.057 1.067.819 2.834 2.06 2.712.479-.048.597-.528 1.119-.523.283.564-.437.742-.51 1.146-.02.104.059.512.105.703.225.931.728 2.136 1.222 2.845.628.9 1.86 1.035 3.187 1.123.237-.51 1.11-.468 1.679-.335-.682-.27-1.316-.924-1.84-1.504-.604-.664-1.215-1.377-1.246-2.246 1.14 1.582 2.082 2.963 4.155 3.658 1.568.526 3.4-.24 4.605-1.087.5-.352.799-.91 1.154-1.42 1.33-1.914 1.95-4.644 1.814-7.291-.056-1.092-.054-2.18-.42-2.914-.383-.768-1.677-1.455-2.435-.76-.14-.747.63-1.209 1.535-.94-.645-.833-1.323-1.834-2.24-2.351zm2.976 24.628c1.248-.62 3.58-1.67 4.363.002.288.616.627 1.659.777 2.295.211.898-.23 2.785-1.152 3.086-.815.266-1.766.25-2.748.053a1.497 1.497 0 0 1-.334-.439c-.701-.027-1.358.038-1.912.326.053.518-.298.602-.626.708-.244.967.487 2.229.312 3.11-.125.628-.897.724-1.465.842-.018.349.025.64.064.935-.13.478-.712.75-1.264.817-1.815.219-4.57.317-6.316-.311-.487-1.195-.871-2.648-1.277-4.013-1.702.182-3.08-.734-4.378-1.335-.449-.208-1.07-.323-1.239-.68-.162-.347-.096-1.01-.136-1.638-.103-1.602-.191-3.146-.614-4.786-.19-.736-.52-1.386-.752-2.095-.213-.657-.586-1.469-.683-2.124-.145-.972.77-1.026 1.355-1.447.904-.65 1.614-1.01 2.593-1.598.29-.174 1.164-.614 1.264-.817.197-.402-.34-.969-.483-1.284-.228-.498-.346-.922-.379-1.413a2.727 2.727 0 0 1-1.82-1.17c-.622-.912-1.053-2.6-.515-3.884.042-.1.253-.3.284-.455.061-.305-.115-.712-.126-1.037-.057-1.669.282-3.106 1.405-3.61.456-1.816 2.088-2.42 3.626-3.323.574-.337 1.208-.553 1.862-.793 2.348-.864 5.949-.702 7.897.772.826.625 2.146 1.944 2.619 2.899 1.247 2.521 1.159 6.735.286 9.803-.117.411-.287 1.017-.525 1.512-.165.345-.68 1.036-.618 1.341.065.315 1.174 1.158 1.412 1.387.428.413 1.242.962 1.308 1.483.07.555-.245 1.314-.405 1.85-.534 1.786-1.055 3.438-1.66 5.03z" clip-rule="evenodd"/>
  <path stroke="#D6E3F1" stroke-width=".4" d="M23.294 27.604c1.248-.62 3.58-1.67 4.363.002.288.616.627 1.659.777 2.295.211.898-.23 2.785-1.152 3.086-.815.266-1.766.25-2.748.053a1.498 1.498 0 0 1-.334-.439c-.701-.027-1.358.038-1.912.326.053.518-.298.602-.626.708-.244.967.487 2.229.312 3.11-.125.628-.897.724-1.465.842-.018.349.025.64.064.935-.13.478-.712.75-1.264.817-1.815.219-4.57.317-6.316-.311-.487-1.195-.871-2.648-1.277-4.013-1.702.182-3.08-.734-4.378-1.335-.449-.208-1.07-.323-1.239-.68-.162-.347-.096-1.01-.136-1.638-.103-1.602-.191-3.146-.614-4.786-.19-.736-.52-1.386-.752-2.095-.213-.657-.586-1.469-.683-2.124-.145-.972.77-1.026 1.355-1.447.904-.65 1.614-1.01 2.593-1.598.29-.174 1.164-.614 1.264-.817.197-.402-.34-.969-.483-1.284-.228-.498-.346-.922-.379-1.413a2.727 2.727 0 0 1-1.82-1.17c-.622-.912-1.053-2.6-.515-3.884.042-.1.253-.3.284-.455.061-.305-.115-.712-.126-1.037-.057-1.669.282-3.106 1.405-3.61.456-1.816 2.088-2.42 3.626-3.323.574-.337 1.208-.553 1.862-.793 2.348-.864 5.949-.702 7.897.772.826.625 2.146 1.944 2.619 2.899 1.247 2.521 1.159 6.735.286 9.803-.117.411-.287 1.017-.525 1.512-.165.345-.68 1.036-.618 1.341.065.315 1.174 1.158 1.412 1.387.428.413 1.242.962 1.308 1.483.07.555-.245 1.314-.405 1.85-.534 1.786-1.055 3.438-1.66 5.03m-3.307 6.267c-.034.813.08 2.116.118 2.969.54 0 .772-.118 1.176-.254.045-1.004-.318-1.932-.423-2.848-.213-.057-.605.15-.87.133zm-8.414-4.622c.357 3.275.873 6.029 1.82 8.93 2.1.637 4.633.693 6.49.117-.341-1.637-.192-3.63-.392-5.377-.15-1.313-.073-2.634-.28-3.974-2.25-.468-5.43-.11-7.638.304zm8.17-.283c-.018 1.406.064 2.794.171 4.203.54-.081.907-.136 1.409-.246-.163-1.356-.143-2.881-.475-4.081-.384.004-.721-.005-1.104.124zm2.741-.227c-.256-.059-.555-.002-.8.002.116 1.147.395 2.413.493 3.616.386.012.591-.17.909-.23.017-1.057-.093-2.513-.602-3.388zm4.15 3.791c.803-.195 1.308-1.179 1.083-2.19-.15-.679-.419-1.957-.706-2.392-.213-.321-.789-.742-1.248-.447-.748.479-2.066.618-2.611 1.197.273.91.358 2.162.47 3.316.935.058 2.085-.258 2.862.077-.543.176-1.247.177-1.715.433.383.185 1.28.148 1.865.006zm-7.471-4.886c-.564-1.327-1.077-2.702-1.92-3.771-.816.547-1.715 1.062-1.944 2.056 1.169.661 2.53 1.313 3.864 1.715zm1.39-4.109c-.053 1.327-.204 3.068-.558 4.108.844-1.074 1.525-2.325 2.236-3.543-.303-.487-.937-.911-1.677-.565zm-1.576-.56c-.32-.035-.59.367-1.006.194-.096.105-.182.219-.28.322.919 1.106 1.336 2.676 2.045 3.976.38-1.25.337-2.617.42-3.98-.522.033-.813-.473-1.179-.512zm-1.014-1.338c-.034.379.054.503.13.937 1.246.39 1.029-1.71-.13-.937zm-1.381-.454c-.537-.293-1.343-.612-2.036-.745-.86-.164-.779 1.172-.742 1.97.028.631.356 1.299.499 1.718.067.196.082.404.25.442.295.07 1.271-.321 1.55-.473.588-.32 1.044-.83 1.544-1.172l.02-.499c-.301-.15-.648-.256-1.09-.275.3-.15.74-.148 1.012-.327l.008-.2c-.497-.038-.687-.26-1.015-.439zm-5.126-.931c-.446.452 1.249 1.069 1.789 1.102-.003-.286.163-.556.13-.761-.642-.113-1.484-.039-1.92-.341zm5.487.212c-.002.044-.06.028-.07.064.574.448 1 .541 1.78.502.351-.255.663-.553 1.03-.793-.844.076-1.905.6-2.74.227zm5.036 1.528c-.024-.503-.156-1.536-.466-1.717-.652-.38-1.81.768-2.302.944.054.153.142.275.149.471.29-.071.644-.022.895.102-.29.032-.613.03-.806.169-.07.203.017.481-.03.764.691.195 1.48.299 2.353.325.17-.221.227-.642.207-1.058zm-11.273-1.303c-.14-.1-1.086-1.33-1.216-1.28-1.712.676-3.313 1.843-4.744 2.948 1.364 2.927 1.915 6.513 2.012 9.97 1.563.73 2.935 1.783 5.056 1.893-.246-1.736-.47-3.284-.609-4.919-.533-.224-1.297.01-1.796-.07-.004-.6.762-.263.825-.667.049-.305-.42-.328-.268-.81.39.142.595.455 1.01.573.38-.832-.005-2.302.05-2.996.01-.13.065-.723.357-.619.258.092-.015 1.575.013 2.232.026.606-.073 1.192.173 1.572a58.54 58.54 0 0 1 6.348-.52c-.488-.21-1.068-.408-1.703-.765-.344-.195-1.43-.599-1.529-.926-.159-.52.416-.798.514-1.245-1.034.564-1.236-.541-1.48-1.324-.222-.709-.348-1.238-.403-1.647-.89-.425-1.843-.855-2.61-1.4zm10.369-1.13c1.426-.692 1.683 2.585 1.124 3.64.086.316.384.436.505.72-.796 1.425-1.68 2.756-2.493 4.166.605-.376 1.468-.067 2.179-.349.26-.103.448-.698.645-1.174.54-1.31 1.11-2.96 1.362-4.21.057-.285.213-.905.178-1.159-.062-.454-.678-.79-.991-1.07-.577-.519-.94-.975-1.542-1.46-.244.36-.768.603-.968.896zM7.443 6.906c-.68.748-.537 2.15-.455 3.147 1.229-.773 2.86.06 2.844 1.376.587-.016.22-.733.113-1.195-.347-1.509.585-3.148.042-4.528-1.052.08-1.916.51-2.544 1.2zm4.864-4.34c-1.539.436-3.511 1.554-4.143 2.936.49-.071.83-.318 1.312-.348.183-.012.422.076.632.024.418-.104.77-1.041 1.086-1.39.308-.34.677-.486.93-.797.163-.078.403-.073.412-.317-.07-.075-.144-.133-.229-.109zm8.011.41c-1.597-.902-4.3-1.58-6-.732-1.371.683-3.224 1.814-3.856 3.247.59 1.383-.175 2.65-.224 4.055-.026.747.352 1.4.381 2.213-.202.333-.819.374-1.246.351-.144-.72-.396-1.528-1.137-1.61-1.048-.114-1.815.754-1.862 1.66-.057 1.067.819 2.834 2.06 2.712.479-.048.597-.528 1.119-.523.283.564-.437.742-.51 1.146-.02.104.059.512.105.703.225.931.728 2.136 1.222 2.845.628.9 1.86 1.035 3.187 1.123.237-.51 1.11-.468 1.679-.335-.682-.27-1.316-.924-1.84-1.504-.604-.664-1.215-1.377-1.246-2.246 1.14 1.582 2.082 2.963 4.155 3.658 1.568.526 3.4-.24 4.605-1.087.5-.352.799-.91 1.154-1.42 1.33-1.914 1.95-4.644 1.814-7.291-.056-1.092-.054-2.18-.42-2.914-.383-.768-1.677-1.455-2.435-.76-.14-.747.63-1.209 1.535-.94-.645-.833-1.323-1.834-2.24-2.351z"/>
  <path fill="#D6E3F1" fill-rule="evenodd" d="M14.967 15.235c.067-.09.44-.227.96.024 0 0-.617.103-.565 1.132l-.258-.052s-.266-.933-.137-1.104zM19.477 24.082a.283.283 0 1 1-.565 0 .283.283 0 0 1 .566 0zM19.76 25.394a.283.283 0 1 1-.566 0 .283.283 0 0 1 .566 0z" clip-rule="evenodd"/>
</svg>
