<svg width="14" height="14" viewBox="0 0 14 14" fill="none" xmlns="http://www.w3.org/2000/svg">
<path d="M6.33203 11H7.66536V9.66671H6.33203V11ZM6.9987 0.333374C3.3187 0.333374 0.332031 3.32004 0.332031 7.00004C0.332031 10.68 3.3187 13.6667 6.9987 13.6667C10.6787 13.6667 13.6654 10.68 13.6654 7.00004C13.6654 3.32004 10.6787 0.333374 6.9987 0.333374ZM6.9987 12.3334C4.0587 12.3334 1.66536 9.94004 1.66536 7.00004C1.66536 4.06004 4.0587 1.66671 6.9987 1.66671C9.9387 1.66671 12.332 4.06004 12.332 7.00004C12.332 9.94004 9.9387 12.3334 6.9987 12.3334ZM6.9987 3.00004C5.52536 3.00004 4.33203 4.19337 4.33203 5.66671H5.66536C5.66536 4.93337 6.26536 4.33337 6.9987 4.33337C7.73203 4.33337 8.33203 4.93337 8.33203 5.66671C8.33203 7.00004 6.33203 6.83337 6.33203 9.00004H7.66536C7.66536 7.50004 9.66537 7.33337 9.66537 5.66671C9.66537 4.19337 8.47203 3.00004 6.9987 3.00004Z" fill="#00B06B"/>
</svg>
