<svg width="36" height="26" viewBox="0 0 36 26" fill="none" xmlns="http://www.w3.org/2000/svg">
<path d="M16.8942 15.1699L13.6542 11.9449L11.8542 13.7449L16.8942 18.7849L24.0342 11.6299L22.2342 9.82994L16.8942 15.1699ZM33.1542 12.6949C33.2897 12.0943 33.3602 11.4807 33.3642 10.8649C33.3562 8.51104 32.4156 6.25626 30.7483 4.59461C29.081 2.93296 26.8231 1.99993 24.4692 1.99994C23.4426 2.00334 22.4255 2.19659 21.4692 2.56994C21.0744 2.26103 20.6584 1.98034 20.2242 1.72994C17.7011 0.277706 14.7051 -0.114632 11.8931 0.638968C9.08117 1.39257 6.68287 3.23059 5.22417 5.74994C4.09927 7.63921 3.57608 9.82613 3.72417 12.0199C2.30399 12.8474 1.19498 14.1186 0.567681 15.6378C-0.0596157 17.1571 -0.170455 18.8403 0.252209 20.4287C0.674873 22.0171 1.60763 23.4227 2.90704 24.4293C4.20645 25.4359 5.80054 25.9877 7.44417 25.9999H28.4442C29.988 25.992 31.4917 25.5078 32.7501 24.6134C34.0085 23.7191 34.9603 22.4582 35.4755 21.0029C35.9907 19.5475 36.0442 17.9687 35.6287 16.4818C35.2133 14.9949 34.3491 13.6724 33.1542 12.6949ZM28.4442 22.9999H7.44417C6.40282 22.974 5.40272 22.5877 4.61443 21.9067C3.82615 21.2258 3.29851 20.2924 3.12153 19.2659C2.94454 18.2394 3.12916 17.1833 3.6439 16.2777C4.15865 15.3721 4.97162 14.6731 5.94417 14.2999L7.11417 13.8649L6.88917 12.6349C6.62509 11.1382 6.79314 9.5971 7.37362 8.19241C7.9541 6.78772 8.92296 5.57759 10.1666 4.70387C11.4103 3.83015 12.8773 3.32904 14.3956 3.25927C15.9139 3.1895 17.4206 3.55396 18.7392 4.30994C19.2849 4.60779 19.7892 4.97593 20.2392 5.40494L21.0042 6.10994L21.9492 5.64494C22.7274 5.23652 23.5904 5.01565 24.4692 4.99994C25.4058 4.99872 26.329 5.22359 27.1601 5.65545C27.9913 6.08731 28.706 6.7134 29.2434 7.48054C29.7809 8.24769 30.1252 9.13321 30.2472 10.0619C30.3692 10.9906 30.2652 11.935 29.9442 12.8149L29.5242 13.9999L30.6042 14.6149C31.3033 14.9973 31.8883 15.5585 32.2994 16.2411C32.7105 16.9237 32.933 17.7032 32.9442 18.4999C32.9442 19.6934 32.4701 20.838 31.6262 21.6819C30.7822 22.5258 29.6376 22.9999 28.4442 22.9999Z" fill="#D6E3F1"/>
</svg>
