<svg xmlns="http://www.w3.org/2000/svg" width="32" height="32" fill="none">
  <mask id="a" width="26" height="32" x="3" y="0" maskUnits="userSpaceOnUse">
    <path fill="#D6E3F1" d="M3.769 31.984h24.48V0H3.77v31.984z"/>
  </mask>
  <g fill="#D6E3F1" fill-rule="evenodd" clip-rule="evenodd" mask="url(#a)">
    <path d="M20.752 1.97a2.85 2.85 0 1 0-5.422 1.762l7.371 22.678a2.85 2.85 0 0 0 3.468 1.767c1.512-.435 2.435-2.042 1.952-3.528L20.752 1.97zM9.331 5.681a2.85 2.85 0 0 0-5.422 1.762l7.37 22.678a2.85 2.85 0 0 0 3.468 1.767c1.513-.435 2.435-2.042 1.953-3.528L9.33 5.68z"/>
  </g>
  <path fill="#D6E3F1" fill-rule="evenodd" d="M30.03 20.752a2.85 2.85 0 1 0-1.762-5.422L5.59 22.7a2.85 2.85 0 0 0-1.767 3.468c.435 1.513 2.042 2.435 3.528 1.952l22.679-7.368z" clip-rule="evenodd"/>
  <path fill="#D6E3F1" fill-rule="evenodd" d="M10.317 27.157l5.42-1.76-1.761-5.421-5.42 1.762 1.76 5.42zM21.738 23.447l5.42-1.762-1.762-5.421-5.42 1.762 1.762 5.42zM26.319 9.33a2.85 2.85 0 0 0-1.762-5.421l-22.678 7.37a2.85 2.85 0 0 0-1.767 3.468C.547 16.26 2.154 17.182 3.64 16.7L26.32 9.33z" clip-rule="evenodd"/>
  <path fill="#D6E3F1" fill-rule="evenodd" d="M6.605 15.737l5.42-1.762-1.76-5.42-5.422 1.762 1.762 5.42zM18.026 12.025l5.42-1.761-1.76-5.422-5.422 1.762 1.762 5.421z" clip-rule="evenodd"/>
</svg>
