<svg width="30" height="40" viewBox="0 0 30 40" fill="none" xmlns="http://www.w3.org/2000/svg">
<path fill-rule="evenodd" clip-rule="evenodd" d="M28.4295 19.5551C28.4295 27.1841 22.3831 33.3687 14.9245 33.3687C7.46601 33.3687 1.41962 27.1841 1.41962 19.5551C1.41962 11.926 7.46601 5.7413 14.9245 5.7413C22.3831 5.7413 28.4295 11.926 28.4295 19.5551Z" fill="white" stroke="#D6E3F1"/>
<path fill-rule="evenodd" clip-rule="evenodd" d="M20.6094 19.6317L18.5514 19.9404L15.7732 20.2491L13.9724 20.3005L12.2233 20.2491L10.8856 19.8374L9.70227 18.5513L8.77621 15.9275L8.57044 15.3615L7.3357 14.95L6.61541 13.7667L6.10095 12.0689L6.66696 10.5769L8.00449 10.1138L9.0849 10.6284L9.59947 11.7602L10.2168 11.6573L10.4226 11.4001L10.2168 10.2168L10.1653 8.72476L10.474 6.6669L10.4619 5.49143L11.4 3.99168L13.0464 2.80833L15.9275 1.57359L19.1172 2.03662L21.8954 4.04307L23.1817 6.10093L24.0048 7.59296L24.2105 11.2972L23.5932 14.487L22.4614 17.3166L21.381 18.8086" fill="white"/>
<path fill-rule="evenodd" clip-rule="evenodd" d="M18.8601 28.5321L11.5029 28.8407V30.0755L12.1203 34.3971L11.8116 34.7573L6.66695 33.008L6.30671 32.3906L5.79226 26.5771L4.60913 23.0787L4.35181 22.2555L8.46752 19.426L9.75381 18.9114L10.8856 20.3005L11.8631 21.1751L12.995 21.5352L13.5094 21.6896L14.1268 24.3648L14.5898 24.9307L15.7732 24.5191L14.9499 26.1141L19.4259 28.2234L18.8601 28.5321Z" fill="white"/>
<path fill-rule="evenodd" clip-rule="evenodd" d="M6.66701 10.5768L8.00455 10.1138L9.08495 10.6284L9.59953 11.7602L10.2169 11.6572L10.3712 11.0399L10.0626 9.85668L10.3712 7.02696L10.1139 5.48353L11.04 4.40313L13.0464 2.8083L12.4805 2.03659L9.65089 3.42568L8.46758 4.35173L7.79878 5.79222L6.76981 7.1813L6.46112 8.82768L6.66701 10.5768Z" fill="white"/>
<path fill-rule="evenodd" clip-rule="evenodd" d="M8.77621 5.7408C8.77621 5.7408 9.54792 3.83729 12.6348 2.91123C15.7216 1.98518 12.7891 2.24231 12.7891 2.24231L9.44513 3.52861L8.15884 4.81474L7.59302 5.84375L8.77621 5.7408Z" fill="white"/>
<path fill-rule="evenodd" clip-rule="evenodd" d="M7.23284 10.2168C7.23284 10.2168 6.15243 6.61532 10.2683 6.1009L10.1139 5.48353L7.28439 6.15245L6.46112 8.82767L6.66701 10.5768L7.23284 10.2168Z" fill="white"/>
<path fill-rule="evenodd" clip-rule="evenodd" d="M18.3458 14.024C18.3458 14.024 18.4657 12.4645 18.8857 12.5844C19.3057 12.7044 19.3057 13.1243 19.3057 13.1243C19.3057 13.1243 18.2858 13.7841 18.3458 14.024Z" fill="#D6E3F1"/>
<path fill-rule="evenodd" clip-rule="evenodd" d="M19.8375 28.5836L22.7186 28.4293C22.7186 28.4293 23.9018 25.4453 23.9018 25.291C23.9018 25.1366 24.9308 20.9694 24.9308 20.9694L22.6157 18.5515L22.1527 18.1398L20.9179 19.3746V24.1592L19.8375 28.5836Z" fill="white"/>
<path fill-rule="evenodd" clip-rule="evenodd" d="M13.1855 38.7192L12.1203 34.397L11.5905 31.2079L11.5029 28.8407L16.3238 28.584L19.3231 28.5836L21.4993 31.501L19.5134 38.1533L19.462 38.925L15.5521 39.2337L13.1855 38.7192Z" fill="white"/>
<path fill-rule="evenodd" clip-rule="evenodd" d="M21.7773 32.8542L23.7838 32.2883L27.5908 32.0825L28.1568 30.3334L27.1278 27.2979L25.9446 27.1436L24.2982 27.658L22.7187 28.4292L21.8801 28.2754L21.2266 28.5322" fill="white"/>
<path d="M13.6486 20.4041L12.2233 20.2491L10.8856 19.8375V20.3005L11.5392 21.0213L13.5971 21.9473" fill="white"/>
<path fill-rule="evenodd" clip-rule="evenodd" d="M19.7707 22.9249C19.7707 22.9249 19.4105 22.4103 19.6678 22.256C19.9251 22.1017 20.1824 22.2562 20.3367 21.9989C20.4911 21.7416 20.3367 21.5872 20.3881 21.2786C20.4395 20.9699 20.6969 20.9183 20.9541 20.8669C21.2112 20.8155 21.9317 20.7126 22.0345 20.9699L21.7258 20.0438L21.1084 19.8381L19.1534 20.9699L19.0504 21.5358V22.6676" fill="white"/>
<path fill-rule="evenodd" clip-rule="evenodd" d="M14.3687 24.6227C14.3069 23.8198 14.2415 23.018 14.1688 22.2158C14.0599 21.0181 14.4565 21.2271 15.4947 21.2271C15.6532 21.2271 16.471 21.4162 16.5295 21.5358C16.8101 22.1089 16.0603 21.9815 16.8527 22.4137C17.5216 22.7784 18.7033 22.1922 18.433 21.3815C18.2818 21.2012 17.6449 21.3253 17.4167 21.2069C17.0148 20.9985 16.6129 20.7902 16.2109 20.5818C15.6995 20.3165 14.5176 19.9297 13.9724 20.3004C12.591 21.2399 14.0596 23.5873 14.5524 24.5674" fill="white"/>
<path fill-rule="evenodd" clip-rule="evenodd" d="M15.7226 6.39466C14.3203 6.06807 13.6236 6.98148 13.1985 7.92883C12.819 7.83684 12.97 7.32072 13.0659 7.05772C13.3169 6.3675 14.3284 5.4487 15.1548 5.57325C15.5105 5.62681 15.9918 5.95201 15.7226 6.39466Z" fill="#D6E3F1"/>
<path fill-rule="evenodd" clip-rule="evenodd" d="M22.5548 7.99153C22.5768 7.99246 22.5992 7.99323 22.6213 7.99416C22.9382 8.65243 23.2124 9.34975 23.6122 9.93085C23.3444 10.5546 21.5844 11.1065 21.6116 9.98657C21.9922 9.82019 22.6492 9.95261 22.9866 9.74008C22.7915 9.20467 22.51 8.74889 22.5548 7.99153Z" fill="#D6E3F1"/>
<path fill-rule="evenodd" clip-rule="evenodd" d="M16.4404 8.00858C16.7411 8.55974 16.8389 9.13884 17.2663 9.55541C17.4588 9.74293 17.8331 9.97152 17.6475 10.493C17.6042 10.6161 17.2873 10.8903 17.1044 10.9442C16.4363 11.1414 14.8794 10.9849 15.4066 10.1519C15.9592 10.1777 16.7019 10.5108 17.1149 10.1097C16.7977 9.60264 16.2323 8.59956 16.4404 8.00858Z" fill="#D6E3F1"/>
<path fill-rule="evenodd" clip-rule="evenodd" d="M22.3039 13.6103C21.2979 14.2565 20.1762 14.9593 18.5278 14.7963C18.1756 14.4901 18.0413 13.8086 18.3835 13.3586C18.5616 13.6648 18.4497 14.228 18.946 14.3127C19.8814 14.4728 20.9699 13.7406 21.6427 13.4847C22.0599 12.7813 21.6068 12.5227 21.2309 12.07C20.4615 11.1425 19.4295 9.99297 19.467 8.60451C19.778 8.37901 19.8048 8.94869 19.8494 9.05241C20.2512 9.99267 21.2623 11.1952 22.0002 11.9999C22.1814 12.1981 22.4797 12.3882 22.5129 12.5193C22.6086 12.9003 22.264 13.3569 22.3039 13.6103Z" fill="#D6E3F1"/>
<path fill-rule="evenodd" clip-rule="evenodd" d="M9.0415 12.93C8.72618 12.75 8.65112 11.9573 8.28093 11.9348C7.75189 11.9027 7.84836 12.9632 7.85047 13.5833C7.48631 13.2527 7.42228 12.2348 7.6898 11.7121C7.38491 11.5623 7.24876 11.8772 7.07965 11.9882C7.297 10.4092 9.38938 11.2558 9.0415 12.93Z" fill="#D6E3F1"/>
<path fill-rule="evenodd" clip-rule="evenodd" d="M22.9445 14.2678C22.4762 15.1591 21.8138 16.1408 20.4397 16.1693C20.4117 15.8815 20.3903 15.4434 20.4412 15.2701C21.4917 15.1692 22.1402 14.6345 22.9445 14.2678Z" fill="#D6E3F1"/>
<path fill-rule="evenodd" clip-rule="evenodd" d="M16.3612 14.8457C17.2376 15.3066 18.8483 15.3561 20.0396 15.3212C20.1035 15.5822 20.1019 15.9046 20.1044 16.2229C18.5732 16.2993 16.7627 15.9204 16.3612 14.8457Z" fill="#D6E3F1"/>
<path fill-rule="evenodd" clip-rule="evenodd" d="M16.1947 15.7051C16.8007 17.2267 18.8837 17.0516 20.6403 17.0096C20.563 17.2071 20.3954 17.4405 20.187 17.5249C19.6241 17.754 18.0716 17.9278 17.2901 17.5127C16.7945 17.2493 16.4761 16.654 16.2046 16.305C16.0735 16.1365 15.4205 15.706 16.1947 15.7051Z" fill="#D6E3F1"/>
<path fill-rule="evenodd" clip-rule="evenodd" d="M22.2308 24.0987C21.5196 25.3168 20.8391 26.5678 19.9953 27.6423C20.3491 26.6021 20.5005 24.8613 20.5539 23.5341C21.2939 23.1878 21.9277 23.612 22.2308 24.0987Z" fill="white"/>
<path fill-rule="evenodd" clip-rule="evenodd" d="M26.0579 28.4766C25.2617 28.636 24.7022 29.4099 23.9254 29.3602C24.3523 28.7584 25.1004 28.5047 26.0579 28.4766Z" fill="#D6E3F1"/>
<path fill-rule="evenodd" clip-rule="evenodd" d="M26.4091 29.7228C25.7601 29.7913 24.9978 29.8964 24.3395 29.8423C24.6512 29.3663 25.8518 29.5305 26.4091 29.7228Z" fill="#D6E3F1"/>
<path fill-rule="evenodd" clip-rule="evenodd" d="M26.634 30.7972C25.9046 30.813 24.998 30.7985 24.3047 30.7403C24.7148 30.2998 26.161 30.5768 26.634 30.7972Z" fill="#D6E3F1"/>
<path fill-rule="evenodd" clip-rule="evenodd" d="M15.299 25.9284C15.5284 24.9343 16.4274 24.4194 17.2437 23.872C18.0862 24.9413 18.5986 26.3165 19.1629 27.6435C17.8297 27.2416 16.4675 26.5895 15.299 25.9284Z" fill="white"/>
<path fill-rule="evenodd" clip-rule="evenodd" d="M19.9873 33.8701C19.9532 34.6829 20.0672 35.9863 20.1053 36.8389C20.6457 36.8396 20.8774 36.7207 21.2807 36.5847C21.3262 35.5814 20.963 34.6533 20.8584 33.7372C20.6449 33.6802 20.253 33.8877 19.9873 33.8701ZM11.5734 29.2477C11.9297 32.5233 12.4458 35.2769 13.3923 38.1775C15.4932 38.8154 18.0257 38.871 19.8826 38.2954C19.5417 36.6583 19.6906 34.6651 19.4914 32.9181C19.3412 31.605 19.4177 30.2838 19.2118 28.9441C16.9618 28.476 13.7815 28.8347 11.5734 29.2477ZM19.7439 28.9646C19.7249 30.3714 19.8068 31.7591 19.9143 33.1677C20.4545 33.0866 20.821 33.0325 21.3229 32.9224C21.16 31.5664 21.18 30.0405 20.848 28.841C20.4643 28.8447 20.1265 28.8365 19.7439 28.9646ZM22.4842 28.7379C22.2279 28.6791 21.9294 28.7356 21.6844 28.7403C21.7996 29.8871 22.0789 31.1526 22.1772 32.3563C22.5626 32.3683 22.7685 32.1865 23.0855 32.1254C23.1025 31.0688 22.9932 29.613 22.4842 28.7379ZM26.6336 32.529C27.4369 32.3339 27.9421 31.35 27.7174 30.3395C27.5666 29.6604 27.298 28.3816 27.0106 27.9472C26.7983 27.6258 26.2224 27.2051 25.7626 27.4996C25.0147 27.9785 23.6971 28.1176 23.1516 28.6973C23.4251 29.6079 23.51 30.8587 23.6228 32.0125C24.5572 32.0708 25.7069 31.7554 26.484 32.0901C25.9415 32.2658 25.2375 32.2672 24.7688 32.5233C25.1519 32.7084 26.0488 32.671 26.6336 32.529ZM19.1629 27.6434C18.5986 26.3164 18.0862 24.9412 17.2437 23.8719C16.4274 24.4194 15.5284 24.9342 15.299 25.9284C16.4675 26.5894 17.8297 27.2415 19.1629 27.6434ZM20.5539 23.5341C20.5005 24.8612 20.349 26.6021 19.9953 27.6422C20.8391 26.5678 21.5196 25.3167 22.2308 24.0986C21.9277 23.612 21.2939 23.1877 20.5539 23.5341ZM18.9771 22.9738C18.6574 22.9394 18.3861 23.3413 17.9705 23.1675C17.8752 23.2728 17.7887 23.3868 17.6916 23.4896C18.6096 24.5959 19.0268 26.1656 19.7358 27.4658C20.1163 26.2168 20.0725 24.8486 20.1563 23.4854C19.6335 23.5186 19.3435 23.0127 18.9771 22.9738ZM17.9632 21.6356C17.9291 22.0145 18.0172 22.1385 18.0935 22.5728C19.339 22.9622 19.1216 20.8633 17.9632 21.6356ZM16.582 21.1822C16.0453 20.8889 15.239 20.5696 14.5458 20.4373C13.6866 20.2729 13.7671 21.6094 13.8035 22.4067C13.8322 23.038 14.1604 23.7055 14.303 24.1249C14.37 24.3207 14.385 24.5285 14.5525 24.5674C14.8484 24.6363 15.8245 24.246 16.1026 24.0943C16.6908 23.7736 17.1472 23.2643 17.6468 22.9222C17.6533 22.7559 17.6596 22.5896 17.6663 22.4232C17.3659 22.2735 17.0188 22.1673 16.5778 22.1481C16.8769 21.9976 17.317 21.9997 17.5895 21.8207C17.5922 21.754 17.595 21.6875 17.5973 21.6214C17.0997 21.5832 16.91 21.3615 16.582 21.1822ZM11.4557 20.251C11.0103 20.7033 12.705 21.3197 13.2446 21.3529C13.2416 21.0667 13.4077 20.7969 13.3743 20.5917C12.7334 20.4791 11.8911 20.5534 11.4557 20.251ZM16.9429 20.4634C16.9407 20.5075 16.8831 20.4915 16.8737 20.5275C17.4468 20.9754 17.8725 21.068 18.6525 21.0294C19.0043 20.7741 19.3162 20.4756 19.6824 20.2365C18.8393 20.3118 17.7778 20.8355 16.9429 20.4634ZM21.9794 21.9906C21.9553 21.4882 21.8233 20.4551 21.5128 20.2742C20.861 19.8937 19.7023 21.0423 19.2115 21.2175C19.2649 21.3712 19.3531 21.493 19.3599 21.6895C19.6502 21.618 20.0036 21.667 20.2552 21.7906C19.9643 21.8232 19.6417 21.821 19.4492 21.9596C19.3787 22.1635 19.4665 22.4413 19.4196 22.7244C20.1101 22.9192 20.8988 23.0229 21.7718 23.0485C21.9416 22.8278 21.9994 22.4074 21.9794 21.9906ZM10.7058 20.6884C10.5659 20.5887 9.6197 19.3575 9.49006 19.4086C7.77783 20.0839 6.17681 21.2515 4.74613 22.3558C6.1102 25.2828 6.66083 28.8688 6.75813 32.3251C8.32073 33.0559 9.69324 34.1095 11.8137 34.2195C11.5683 32.4835 11.3443 30.9346 11.205 29.3002C10.6722 29.0756 9.90787 29.3103 9.40928 29.2305C9.40505 28.6297 10.1707 28.9674 10.2345 28.5633C10.2826 28.2577 9.81323 28.2346 9.96606 27.7533C10.3558 27.895 10.5605 28.208 10.9762 28.3255C11.3561 27.4945 10.9709 26.0242 11.0257 25.3297C11.036 25.1993 11.0908 24.6072 11.3829 24.7111C11.6414 24.803 11.3681 26.2857 11.3964 26.943C11.4223 27.5487 11.3233 28.1347 11.5686 28.5149C13.6175 28.236 15.6996 28.0557 17.9166 27.9949C17.4289 27.7856 16.8495 27.5875 16.2142 27.2295C15.8699 27.0354 14.7843 26.6314 14.685 26.3043C14.5264 25.7831 15.101 25.5055 15.1992 25.0587C14.165 25.6227 13.9632 24.518 13.7185 23.7353C13.4968 23.0264 13.3706 22.4969 13.3163 22.088C12.4253 21.6633 11.4727 21.2331 10.7058 20.6884ZM21.0745 19.5576C22.501 18.8658 22.7582 22.143 22.199 23.1987C22.2854 23.5135 22.5827 23.6341 22.704 23.9171C21.9079 25.3432 21.0237 26.6745 20.2114 28.0838C20.8156 27.7076 21.6787 28.0165 22.3898 27.735C22.6497 27.6322 22.8378 27.0372 23.0346 26.5612C23.5759 25.2516 24.1442 23.6006 24.397 22.3509C24.4541 22.0661 24.6097 21.4456 24.5748 21.1922C24.5126 20.7384 23.8969 20.402 23.5838 20.1214C23.0068 19.6031 22.6435 19.147 22.0417 18.6624C21.7977 19.0226 21.274 19.2646 21.0745 19.5576ZM7.44321 6.90638C6.76344 7.65433 6.90573 9.05576 6.98803 10.0528C8.21673 9.27987 9.84758 10.1139 9.83221 11.4286C10.4188 11.413 10.0514 10.696 9.94525 10.234C9.59847 8.72516 10.5295 7.08588 9.98746 5.70606C8.93509 5.78585 8.07053 6.2157 7.44321 6.90638ZM12.3071 2.56533C10.7682 3.00151 8.79594 4.11972 8.16356 5.50217C8.65323 5.43102 8.99316 5.18407 9.4762 5.15351C9.65876 5.14162 9.89793 5.23006 10.1077 5.1779C10.5259 5.07418 10.8787 4.1367 11.1942 3.78788C11.5016 3.44725 11.8712 3.3017 12.1241 2.99117C12.2866 2.91276 12.5269 2.91816 12.5361 2.67415C12.4657 2.59883 12.3915 2.54141 12.3071 2.56533ZM20.318 2.97558C18.7207 2.07437 16.0171 1.39649 14.318 2.24353C12.947 2.92711 11.0938 4.05814 10.4619 5.49137C11.0522 6.87443 10.2871 8.14174 10.2383 9.54596C10.2123 10.2931 10.5901 10.9454 10.619 11.7588C10.417 12.092 9.79995 12.133 9.37279 12.1102C9.22901 11.3907 8.97729 10.5819 8.23634 10.5007C7.18788 10.386 6.42129 11.2538 6.37366 12.1605C6.3173 13.2269 7.1927 14.9943 8.43348 14.8716C8.91279 14.8242 9.03054 14.3437 9.55277 14.3486C9.83582 14.9134 9.11615 15.0907 9.04211 15.4946C9.02282 15.599 9.1018 16.0067 9.14773 16.198C9.3731 17.1291 9.8755 18.3342 10.37 19.0431C10.9976 19.9423 12.2307 20.0779 13.5572 20.166C13.7942 19.6556 14.667 19.6976 15.2357 19.8311C14.5541 19.5611 13.9205 18.9067 13.3954 18.3274C12.7922 17.6628 12.1811 16.9499 12.1503 16.0813C13.2902 17.6627 14.2319 19.0438 16.3047 19.7394C17.8731 20.2654 19.7048 19.4983 20.9099 18.652C21.41 18.3003 21.7085 17.7422 22.064 17.2313C23.3939 15.3182 24.0145 12.5876 23.8781 9.94092C23.8219 8.84941 23.8244 7.76159 23.4581 7.02723C23.0754 6.25938 21.7807 5.5724 21.0229 6.26694C20.8825 5.52023 21.6531 5.05843 22.5583 5.32715C21.9128 4.49416 21.2354 3.49324 20.318 2.97558ZM23.2939 27.6036C24.5421 26.9831 26.8742 25.9335 27.6567 27.6059C27.9455 28.2224 28.2843 29.2645 28.4338 29.9009C28.6451 30.7987 28.2048 32.6857 27.282 32.987C26.4669 33.253 25.5158 33.2368 24.5341 33.0396C24.4184 32.9434 24.2897 32.7758 24.1997 32.6011C23.4987 32.5739 22.8423 32.6387 22.2885 32.9269C22.341 33.4453 21.9903 33.5285 21.6616 33.6353C21.4179 34.6016 22.1491 35.8636 21.9741 36.7447C21.8493 37.3725 21.0769 37.4695 20.5093 37.587C20.4907 37.9358 20.5341 38.227 20.5728 38.5221C20.443 39.0004 19.8609 39.2727 19.3092 39.3394C17.4943 39.5576 14.7386 39.6557 12.9929 39.0279C12.5058 37.833 12.122 36.3797 11.7163 35.0153C10.0137 35.1971 8.63666 34.2807 7.33849 33.6802C6.88903 33.4719 6.26726 33.3571 6.09935 32.9993C5.93656 32.6529 6.00318 31.9891 5.96279 31.362C5.86 29.7604 5.77197 28.2156 5.34903 26.5757C5.15912 25.8398 4.82812 25.1905 4.59721 24.4814C4.38378 23.8242 4.01089 23.0121 3.91364 22.3567C3.76944 21.3854 4.68403 21.3314 5.26885 20.9105C6.17289 20.2597 6.88252 19.8997 7.86162 19.3123C8.15162 19.1384 9.02614 18.698 9.12561 18.4952C9.32336 18.0932 8.78618 17.5263 8.64257 17.2111C8.41539 16.7127 8.29692 16.2894 8.26436 15.7976C7.44303 15.6678 6.82041 15.179 6.44432 14.6278C5.8222 13.7157 5.39075 12.0281 5.92902 10.7444C5.97123 10.6433 6.18175 10.4445 6.21281 10.2893C6.27407 9.98352 6.09753 9.57698 6.08655 9.25178C6.03 7.58333 6.36885 6.14578 7.49205 5.64262C7.94802 3.82616 9.58001 3.22221 11.1176 2.31946C11.6924 1.98207 12.3259 1.76645 12.9803 1.52568C15.3275 0.661821 18.9289 0.824499 20.8771 2.29786C21.7031 2.92264 23.0235 4.2418 23.4958 5.19688C24.7432 7.71838 24.6546 11.9324 23.7821 14.9997C23.6648 15.4114 23.4947 16.0168 23.2572 16.5115C23.0916 16.8569 22.5768 17.548 22.6393 17.853C22.7037 18.1683 23.813 19.0106 24.0508 19.2399C24.4791 19.6531 25.2928 20.2015 25.3587 20.7229C25.4296 21.2777 25.1142 22.0368 24.9545 22.5722C24.4205 24.359 23.8994 26.0107 23.2939 27.6036Z" fill="#D6E3F1"/>
<path d="M23.2939 27.6036C24.5421 26.9831 26.8742 25.9335 27.6567 27.6059C27.9455 28.2224 28.2843 29.2645 28.4338 29.9009C28.6451 30.7987 28.2048 32.6857 27.282 32.987C26.4669 33.253 25.5158 33.2368 24.5341 33.0396C24.4185 32.9434 24.2897 32.7758 24.1997 32.6011C23.4987 32.5739 22.8423 32.6387 22.2885 32.9269C22.341 33.4453 21.9903 33.5285 21.6616 33.6353C21.4179 34.6016 22.1491 35.8636 21.9741 36.7447C21.8493 37.3725 21.0769 37.4695 20.5093 37.587C20.4907 37.9358 20.5341 38.227 20.5728 38.5221C20.443 39.0004 19.8609 39.2727 19.3092 39.3394C17.4943 39.5576 14.7386 39.6557 12.9929 39.0279C12.5058 37.833 12.122 36.3797 11.7163 35.0153C10.0137 35.1971 8.63666 34.2807 7.33849 33.6802C6.88903 33.4719 6.26726 33.3571 6.09935 32.9993C5.93656 32.6529 6.00318 31.9891 5.96279 31.362C5.86 29.7604 5.77197 28.2156 5.34903 26.5757C5.15912 25.8398 4.82812 25.1905 4.59721 24.4814C4.38378 23.8242 4.01089 23.0121 3.91364 22.3567C3.76944 21.3854 4.68403 21.3314 5.26885 20.9105C6.17289 20.2597 6.88252 19.8997 7.86162 19.3123C8.15162 19.1384 9.02614 18.698 9.12561 18.4952C9.32336 18.0932 8.78618 17.5263 8.64257 17.2111C8.41539 16.7127 8.29692 16.2894 8.26436 15.7976C7.44303 15.6678 6.82041 15.179 6.44432 14.6278C5.8222 13.7157 5.39075 12.0281 5.92902 10.7444C5.97123 10.6433 6.18175 10.4445 6.21281 10.2893C6.27407 9.98352 6.09753 9.57698 6.08655 9.25178C6.03 7.58333 6.36885 6.14578 7.49205 5.64262C7.94802 3.82616 9.58001 3.22222 11.1176 2.31946C11.6924 1.98207 12.3259 1.76645 12.9803 1.52568C15.3275 0.66182 18.9289 0.824499 20.8771 2.29786C21.7031 2.92264 23.0235 4.2418 23.4958 5.19688C24.7432 7.71838 24.6546 11.9324 23.7821 14.9997C23.6648 15.4114 23.4947 16.0168 23.2572 16.5115C23.0916 16.8569 22.5768 17.548 22.6393 17.853C22.7037 18.1683 23.813 19.0106 24.0508 19.2399C24.4791 19.6531 25.2928 20.2015 25.3587 20.7229C25.4296 21.2777 25.1142 22.0368 24.9545 22.5722C24.4205 24.359 23.8994 26.0107 23.2939 27.6036M19.9873 33.8701C19.9532 34.6829 20.0672 35.9863 20.1053 36.8389C20.6457 36.8396 20.8774 36.7207 21.2807 36.5847C21.3262 35.5814 20.963 34.6533 20.8584 33.7372C20.6449 33.6802 20.253 33.8877 19.9873 33.8701V33.8701ZM11.5734 29.2477C11.9297 32.5233 12.4458 35.2769 13.3923 38.1775C15.4932 38.8154 18.0257 38.871 19.8826 38.2954C19.5417 36.6583 19.6906 34.6651 19.4914 32.9181C19.3412 31.605 19.4177 30.2838 19.2118 28.9441C16.9618 28.476 13.7815 28.8347 11.5734 29.2477V29.2477ZM19.7439 28.9646C19.7249 30.3714 19.8068 31.7591 19.9143 33.1677C20.4545 33.0866 20.821 33.0325 21.3229 32.9224C21.16 31.5664 21.18 30.0405 20.848 28.841C20.4643 28.8447 20.1265 28.8365 19.7439 28.9646V28.9646ZM22.4842 28.7379C22.2279 28.6791 21.9294 28.7356 21.6844 28.7403C21.7996 29.8871 22.0789 31.1526 22.1772 32.3563C22.5626 32.3683 22.7685 32.1865 23.0855 32.1254C23.1025 31.0688 22.9932 29.613 22.4842 28.7379V28.7379ZM26.6336 32.529C27.4369 32.3339 27.9421 31.35 27.7174 30.3395C27.5666 29.6604 27.298 28.3816 27.0106 27.9472C26.7983 27.6258 26.2224 27.2051 25.7626 27.4996C25.0147 27.9785 23.6971 28.1176 23.1516 28.6973C23.4251 29.6079 23.51 30.8587 23.6228 32.0125C24.5572 32.0708 25.7069 31.7554 26.484 32.0901C25.9415 32.2658 25.2375 32.2672 24.7688 32.5233C25.1519 32.7084 26.0488 32.671 26.6336 32.529V32.529ZM19.1629 27.6434C18.5986 26.3164 18.0862 24.9412 17.2437 23.8719C16.4274 24.4194 15.5284 24.9342 15.299 25.9284C16.4675 26.5894 17.8297 27.2415 19.1629 27.6434ZM20.5539 23.5341C20.5005 24.8612 20.349 26.6021 19.9953 27.6422C20.8391 26.5678 21.5196 25.3167 22.2308 24.0986C21.9277 23.612 21.2939 23.1877 20.5539 23.5341V23.5341ZM18.9771 22.9738C18.6574 22.9394 18.3861 23.3413 17.9705 23.1675C17.8752 23.2728 17.7887 23.3868 17.6916 23.4896C18.6096 24.5959 19.0268 26.1656 19.7358 27.4658C20.1163 26.2168 20.0725 24.8486 20.1563 23.4854C19.6335 23.5186 19.3435 23.0127 18.9771 22.9738ZM17.9632 21.6356C17.9291 22.0145 18.0172 22.1385 18.0935 22.5728C19.339 22.9622 19.1216 20.8633 17.9632 21.6356ZM16.582 21.1822C16.0453 20.8889 15.239 20.5696 14.5458 20.4373C13.6866 20.2729 13.7671 21.6094 13.8035 22.4067C13.8322 23.038 14.1604 23.7055 14.303 24.1249C14.37 24.3207 14.385 24.5285 14.5525 24.5674C14.8484 24.6363 15.8245 24.246 16.1026 24.0943C16.6908 23.7736 17.1472 23.2643 17.6468 22.9222C17.6533 22.7559 17.6596 22.5896 17.6663 22.4232C17.3659 22.2735 17.0188 22.1673 16.5778 22.1481C16.8769 21.9976 17.317 21.9997 17.5895 21.8207C17.5922 21.754 17.595 21.6875 17.5973 21.6214C17.0997 21.5832 16.91 21.3615 16.582 21.1822V21.1822ZM11.4557 20.251C11.0103 20.7033 12.705 21.3197 13.2446 21.3529C13.2416 21.0667 13.4077 20.7969 13.3743 20.5917C12.7334 20.4791 11.8911 20.5534 11.4557 20.251V20.251ZM16.9429 20.4634C16.9407 20.5075 16.8831 20.4915 16.8737 20.5275C17.4468 20.9754 17.8725 21.068 18.6525 21.0294C19.0043 20.7741 19.3162 20.4756 19.6824 20.2365C18.8393 20.3118 17.7778 20.8355 16.9429 20.4634V20.4634ZM21.9794 21.9906C21.9553 21.4882 21.8233 20.4551 21.5128 20.2742C20.861 19.8937 19.7023 21.0423 19.2115 21.2175C19.2649 21.3712 19.3531 21.493 19.3599 21.6895C19.6502 21.618 20.0036 21.667 20.2552 21.7906C19.9643 21.8232 19.6417 21.821 19.4492 21.9596C19.3787 22.1635 19.4665 22.4413 19.4196 22.7244C20.1101 22.9192 20.8988 23.0229 21.7718 23.0485C21.9416 22.8278 21.9994 22.4074 21.9794 21.9906V21.9906ZM10.7058 20.6884C10.5659 20.5887 9.6197 19.3575 9.49006 19.4086C7.77783 20.0839 6.17681 21.2515 4.74613 22.3558C6.1102 25.2828 6.66083 28.8688 6.75813 32.3251C8.32073 33.0559 9.69324 34.1095 11.8136 34.2195C11.5683 32.4835 11.3443 30.9346 11.205 29.3002C10.6722 29.0756 9.90787 29.3103 9.40928 29.2305C9.40505 28.6297 10.1707 28.9674 10.2345 28.5633C10.2826 28.2577 9.81323 28.2346 9.96606 27.7533C10.3558 27.895 10.5605 28.208 10.9762 28.3255C11.3561 27.4945 10.9709 26.0242 11.0257 25.3297C11.036 25.1993 11.0908 24.6072 11.3829 24.7111C11.6414 24.803 11.3681 26.2857 11.3964 26.943C11.4223 27.5487 11.3233 28.1347 11.5686 28.5149C13.6175 28.236 15.6996 28.0557 17.9166 27.9949C17.4289 27.7856 16.8495 27.5875 16.2142 27.2295C15.8699 27.0354 14.7843 26.6314 14.685 26.3043C14.5264 25.7831 15.101 25.5055 15.1992 25.0587C14.165 25.6227 13.9632 24.518 13.7185 23.7353C13.4968 23.0264 13.3706 22.4969 13.3163 22.088C12.4253 21.6633 11.4727 21.2331 10.7058 20.6884V20.6884ZM21.0745 19.5576C22.501 18.8658 22.7582 22.143 22.199 23.1987C22.2854 23.5135 22.5827 23.6341 22.704 23.9171C21.9079 25.3432 21.0237 26.6745 20.2114 28.0838C20.8156 27.7076 21.6787 28.0165 22.3898 27.735C22.6497 27.6322 22.8378 27.0372 23.0346 26.5612C23.5759 25.2516 24.1442 23.6006 24.397 22.3509C24.4541 22.0661 24.6097 21.4456 24.5748 21.1922C24.5126 20.7384 23.8969 20.402 23.5838 20.1214C23.0068 19.6031 22.6435 19.147 22.0417 18.6624C21.7977 19.0226 21.274 19.2646 21.0745 19.5576V19.5576ZM7.44321 6.90638C6.76344 7.65433 6.90573 9.05576 6.98803 10.0528C8.21673 9.27987 9.84758 10.1139 9.83221 11.4286C10.4188 11.413 10.0514 10.696 9.94525 10.234C9.59847 8.72516 10.5295 7.08588 9.98746 5.70606C8.93509 5.78585 8.07053 6.2157 7.44321 6.90638V6.90638ZM12.3071 2.56533C10.7682 3.00151 8.79594 4.11972 8.16356 5.50217C8.65323 5.43102 8.99316 5.18407 9.4762 5.15351C9.65876 5.14162 9.89793 5.23006 10.1077 5.1779C10.5259 5.07418 10.8787 4.1367 11.1942 3.78788C11.5016 3.44725 11.8712 3.3017 12.1241 2.99117C12.2866 2.91276 12.5269 2.91816 12.5361 2.67414C12.4657 2.59883 12.3915 2.54141 12.3071 2.56533V2.56533ZM20.318 2.97557C18.7207 2.07437 16.0171 1.39649 14.318 2.24353C12.947 2.92711 11.0938 4.05814 10.4619 5.49136C11.0522 6.87443 10.2871 8.14174 10.2383 9.54595C10.2123 10.2931 10.5901 10.9454 10.619 11.7588C10.417 12.092 9.79995 12.1331 9.37279 12.1102C9.22901 11.3907 8.97729 10.5819 8.23634 10.5007C7.18788 10.386 6.42129 11.2538 6.37366 12.1605C6.3173 13.2269 7.1927 14.9943 8.43348 14.8716C8.91279 14.8242 9.03054 14.3437 9.55277 14.3486C9.83582 14.9134 9.11615 15.0907 9.04211 15.4946C9.02282 15.599 9.1018 16.0067 9.14773 16.198C9.3731 17.1291 9.8755 18.3342 10.37 19.0431C10.9976 19.9423 12.2307 20.0779 13.5572 20.166C13.7942 19.6556 14.667 19.6976 15.2357 19.8311C14.5541 19.5611 13.9205 18.9067 13.3954 18.3274C12.7922 17.6628 12.1811 16.9499 12.1503 16.0813C13.2902 17.6627 14.2319 19.0438 16.3047 19.7394C17.8731 20.2654 19.7048 19.4983 20.9099 18.652C21.41 18.3003 21.7085 17.7422 22.064 17.2313C23.3939 15.3182 24.0145 12.5876 23.8781 9.94092C23.8219 8.84941 23.8244 7.7616 23.4581 7.02723C23.0754 6.25938 21.7807 5.5724 21.0229 6.26694C20.8825 5.52023 21.6531 5.05843 22.5583 5.32714C21.9128 4.49416 21.2354 3.49324 20.318 2.97557V2.97557Z" stroke="#D6E3F1" stroke-width="0.4"/>
<path fill-rule="evenodd" clip-rule="evenodd" d="M14.9667 15.235C15.0344 15.1448 15.4067 15.0079 15.9276 15.2587C15.9276 15.2587 15.3102 15.3617 15.3616 16.391L15.1043 16.3394C15.1043 16.3394 14.8384 15.4061 14.9667 15.235Z" fill="#D6E3F1"/>
<path fill-rule="evenodd" clip-rule="evenodd" d="M19.4775 24.082C19.4775 24.2382 19.3508 24.3649 19.1944 24.3649C19.0382 24.3649 18.9115 24.2382 18.9115 24.082C18.9115 23.9258 19.0382 23.7989 19.1944 23.7989C19.3508 23.7989 19.4775 23.9258 19.4775 24.082Z" fill="#D6E3F1"/>
<path fill-rule="evenodd" clip-rule="evenodd" d="M19.7604 25.3939C19.7604 25.5501 19.6337 25.6768 19.4773 25.6768C19.3211 25.6768 19.1944 25.5501 19.1944 25.3939C19.1944 25.2377 19.3211 25.1109 19.4773 25.1109C19.6337 25.1109 19.7604 25.2377 19.7604 25.3939Z" fill="#D6E3F1"/>
</svg>
