<svg xmlns="http://www.w3.org/2000/svg" width="26" height="35" fill="none">
  <path fill="#D33833" fill-rule="evenodd" d="M24.806 16.78c0 6.9-5.468 12.493-12.213 12.493C5.848 29.273.379 23.68.379 16.781c0-6.9 5.469-12.493 12.214-12.493S24.806 9.88 24.806 16.78z" clip-rule="evenodd"/>
  <path fill="#EF3D3A" d="M.877 19.875s-.884-13.028 11.12-13.4l-.837-1.396-6.514 2.187-1.861 2.14-1.629 3.117-.93 3.63.279 2.419"/>
  <path fill="#231F20" d="M4.228 8.258a12.219 12.219 0 0 0-3.47 8.57c0 3.348 1.327 6.375 3.47 8.568 2.144 2.192 5.098 3.544 8.365 3.544 3.266 0 6.221-1.352 8.365-3.544a12.219 12.219 0 0 0 3.469-8.569 12.22 12.22 0 0 0-3.47-8.569c-2.143-2.191-5.098-3.544-8.364-3.544-3.267 0-6.221 1.353-8.365 3.544zm-.543 17.668A12.978 12.978 0 0 1 0 16.827c0-3.55 1.408-6.77 3.685-9.099 2.277-2.33 5.429-3.773 8.908-3.773 3.479 0 6.63 1.444 8.907 3.773a12.977 12.977 0 0 1 3.686 9.1c0 3.55-1.408 6.769-3.686 9.098-2.276 2.33-5.428 3.773-8.907 3.773-3.48 0-6.63-1.444-8.908-3.773z"/>
  <path fill="#F0D6B7" fill-rule="evenodd" d="M17.734 16.85l-1.861.279-2.513.28-1.628.046-1.582-.047-1.21-.372-1.07-1.163-.838-2.373-.186-.512-1.116-.372-.652-1.07-.465-1.536.512-1.35 1.21-.418.977.465.465 1.024.558-.093.186-.233-.186-1.07-.046-1.35.279-1.86-.011-1.063.848-1.357 1.49-1.07L13.5.518l2.885.42 2.512 1.814 1.163 1.86.745 1.35.186 3.35-.558 2.885-1.024 2.559-.977 1.35" clip-rule="evenodd"/>
  <path fill="#335061" fill-rule="evenodd" d="M16.152 24.9l-6.654.279v1.116l.559 3.908-.28.326-4.652-1.582-.326-.558-.465-5.258-1.07-3.164-.233-.744 3.722-2.559 1.164-.465 1.023 1.256.884.79 1.024.327.465.14.558 2.419.42.511 1.07-.372-.745 1.443 4.048 1.907-.512.28z" clip-rule="evenodd"/>
  <path fill="#6D6B6D" fill-rule="evenodd" d="M5.125 8.661l1.21-.418.977.465.465 1.023.558-.093.14-.558-.28-1.07.28-2.56-.233-1.395.838-.977 1.814-1.442-.511-.698-2.56 1.256-1.07.837-.604 1.303-.931 1.256-.28 1.49.187 1.581z" clip-rule="evenodd"/>
  <path fill="#DCD9D8" fill-rule="evenodd" d="M7.033 4.287s.697-1.721 3.49-2.559c2.79-.837.139-.605.139-.605L7.637 2.287 6.474 3.45l-.512.93 1.07-.093zM5.637 8.336S4.66 5.079 8.382 4.614l-.14-.559-2.559.605-.744 2.42.186 1.582.512-.326z" clip-rule="evenodd"/>
  <path fill="#F7E4CD" fill-rule="evenodd" d="M7.126 12.662l.609-.59s.275.032.321.358c.047.326.186 3.257 2.187 4.839.182.144-1.489-.233-1.489-.233L7.265 14.71M15.687 11.778s.109-1.41.488-1.302c.38.109.38.489.38.489s-.922.596-.868.813z" clip-rule="evenodd"/>
  <path fill="#F7E4CD" d="M19.549 6.614s-.767.162-.838.837c-.07.676.838.14.977.093M13.919 6.66s-1.024.14-1.024.792c0 .65 1.164.604 1.49.325"/>
  <path fill="#F7E4CD" fill-rule="evenodd" d="M7.59 9.685s-1.767-1.07-1.953-.046c-.186 1.023-.605 1.768.279 2.838l-.605-.186-.558-1.443-.186-1.395 1.07-1.117 1.21.093.697.558.047.698zM8.428 6.753s.791-4.094 4.793-4.885c3.294-.651 5.025.14 5.676.884 0 0-2.931-3.49-5.723-2.42-2.791 1.07-4.839 3.025-4.792 4.281.08 2.14.046 2.14.046 2.14zM19.223 3.217s-1.35-.046-1.396 1.164c0 0 0 .186.093.372 0 0 1.07-1.21 1.722-.559" clip-rule="evenodd"/>
  <path fill="#F7E4CD" fill-rule="evenodd" d="M13.315 4.879s-.233-1.857-1.816-.778c-1.023.698-.93 1.675-.744 1.861.186.187.135.561.277.304.142-.257.095-1.095.607-1.327.512-.233 1.35-.493 1.676-.06z" clip-rule="evenodd"/>
  <path fill="#49728B" fill-rule="evenodd" d="M8.94 17.455l-4.373 1.954s1.814 7.212.884 9.445l-.652-.232-.046-2.746-1.21-5.21-.512-1.443 4.56-3.071 1.35 1.303zM9.39 21.444l.62.757v2.791h-.744s-.093-1.954-.093-2.187c0-.232.093-1.07.093-1.07M9.406 25.411l-2.094.093.605.42 1.489.232" clip-rule="evenodd"/>
  <path fill="#335061" fill-rule="evenodd" d="M16.57 24.946l1.722-.047.42 4.281-1.769.233-.372-4.467z" clip-rule="evenodd"/>
  <path fill="#335061" fill-rule="evenodd" d="M17.036 24.946l2.606-.14s1.07-2.698 1.07-2.838c0-.14.93-3.908.93-3.908l-2.093-2.187-.419-.372-1.117 1.117v4.327l-.977 4.001z" clip-rule="evenodd"/>
  <path fill="#49728B" fill-rule="evenodd" d="M18.2 24.62l-1.63.326.233 1.303c.605.279 1.629-.466 1.629-.466M18.246 16.478l3.257 2.419.093-1.117-2.466-2.28-.884.978z" clip-rule="evenodd"/>
  <path fill="#fff" fill-rule="evenodd" d="M11.02 34.112l-.963-3.909-.48-2.884-.078-2.14 4.36-.233h2.712l-.247 4.886.42 3.769-.047.697-3.536.28-2.14-.466z" clip-rule="evenodd"/>
  <path fill="#DCD9D8" fill-rule="evenodd" d="M15.966 24.9s-.233 4.838.465 8.281c0 0-1.396.885-3.443 1.117l3.909-.14.465-.279-.558-7.63-.14-1.629" clip-rule="evenodd"/>
  <path fill="#fff" fill-rule="evenodd" d="M18.79 28.808l1.815-.512 3.443-.186.512-1.582-.93-2.745-1.07-.14-1.49.466-1.428.697-.759-.139-.59.232" clip-rule="evenodd"/>
  <path fill="#DCD9D8" fill-rule="evenodd" d="M18.758 27.877s1.21-.558 1.396-.512l-.512-2.559.605-.233s.418 2.42.418 2.7c0 0 2.606.139 2.838.139 0 0 .559-1.07.42-2.187l.511 1.489.047.837-.745 1.117-.837.186-1.396-.046-.465-.605-1.629.232-.512.187" clip-rule="evenodd"/>
  <path fill="#fff" d="M16.93 24.575l-1.024-2.606-1.07-1.536s.232-.651.558-.651h1.07l1.024.372-.093 1.722-.466 2.698z"/>
  <path fill="#DCD9D8" fill-rule="evenodd" d="M17.13 23.69s-1.304-2.513-1.304-2.885c0 0 .233-.558.559-.419.325.14 1.023.512 1.023.512v-.884l-1.582-.326-1.07.14 1.815 4.28.372.047" clip-rule="evenodd"/>
  <path fill="#fff" d="M11.439 17.548l-1.289-.14-1.21-.372v.419l.591.652 1.861.837"/>
  <path fill="#DCD9D8" fill-rule="evenodd" d="M9.36 17.688s1.442.605 1.907.465l.046.558-1.302-.279-.791-.558.14-.186z" clip-rule="evenodd"/>
  <path fill="#D33833" fill-rule="evenodd" d="M18.785 19.94c-.79-.023-1.502-.117-2.127-.293.043-.256-.037-.507.027-.692.174-.125.466-.123.729-.152a1.268 1.268 0 0 0-.81-.092c-.006-.177-.086-.288-.134-.427.444-.158 1.492-1.197 2.081-.853.281.164.4 1.098.422 1.552.018.377-.034.758-.188.957z" clip-rule="evenodd"/>
  <path stroke="#D33833" stroke-width="2" d="M18.785 19.94c-.79-.023-1.502-.117-2.127-.293.043-.256-.037-.507.027-.692.174-.125.466-.123.729-.152a1.268 1.268 0 0 0-.81-.092c-.006-.177-.086-.288-.134-.427.444-.158 1.492-1.197 2.081-.853.281.164.4 1.098.422 1.552.018.377-.034.758-.188.957z"/>
  <path fill="#D33833" fill-rule="evenodd" d="M15.01 18.65l-.007.18c-.246.162-.644.16-.915.296.399.017.713.113.985.249l-.018.45c-.452.31-.865.77-1.397 1.06-.251.138-1.134.491-1.402.429-.151-.035-.165-.223-.225-.4-.13-.38-.426-.983-.452-1.554-.033-.721-.106-1.93.671-1.781.627.12 1.357.408 1.842.673.296.162.468.363.918.398z" clip-rule="evenodd"/>
  <path stroke="#D33833" stroke-width="2" d="M15.01 18.65l-.007.18c-.246.162-.644.16-.915.296.399.017.713.113.985.249l-.018.45c-.452.31-.865.77-1.397 1.06-.251.138-1.134.491-1.402.429-.151-.035-.165-.223-.225-.4-.13-.38-.426-.983-.452-1.554-.033-.721-.106-1.93.671-1.781.627.12 1.357.408 1.842.673.296.162.468.363.918.398z"/>
  <path fill="#D33833" fill-rule="evenodd" d="M15.459 19.51c-.069-.393-.149-.505-.118-.848 1.048-.698 1.244 1.2.118.848z" clip-rule="evenodd"/>
  <path stroke="#D33833" stroke-width="2" d="M15.459 19.51c-.069-.393-.149-.505-.118-.848 1.048-.698 1.244 1.2.118.848z"/>
  <path fill="#EF3D3A" fill-rule="evenodd" d="M16.976 19.828s-.326-.465-.093-.605c.232-.14.465 0 .604-.232.14-.233 0-.373.047-.652.046-.279.28-.326.512-.372.232-.047.884-.14.977.093l-.28-.837-.558-.186-1.768 1.023-.093.512v1.023M12.09 21.364a158.52 158.52 0 0 0-.18-2.177c-.099-1.083.26-.894 1.199-.894.143 0 .883.17.935.28.254.517-.424.402.293.793.605.33 1.673-.2 1.429-.933-.137-.163-.713-.051-.92-.158l-1.09-.566c-.462-.24-1.531-.59-2.024-.254-1.25.85.079 2.972.525 3.859" clip-rule="evenodd"/>
  <path fill="#231F20" fill-rule="evenodd" d="M13.315 4.878c-1.268-.295-1.899.531-2.283 1.388-.343-.083-.207-.55-.12-.788.227-.624 1.142-1.455 1.89-1.342.32.048.756.342.513.742zM19.494 6.323l.06.002c.286.595.534 1.226.896 1.752-.242.564-1.834 1.063-1.81.05.345-.15.939-.03 1.244-.223-.176-.484-.43-.896-.39-1.581zM13.964 6.338c.272.499.36 1.023.747 1.4.174.169.512.376.345.847-.04.111-.326.36-.492.408-.604.179-2.012.037-1.535-.716.5.023 1.171.324 1.545-.038-.287-.459-.798-1.366-.61-1.9zM19.267 11.404c-.91.585-1.925 1.22-3.415 1.073-.319-.277-.44-.893-.13-1.3.16.277.059.786.508.863.846.144 1.83-.518 2.439-.75.377-.635-.033-.87-.373-1.279-.696-.838-1.629-1.878-1.595-3.134.281-.204.305.312.346.405.363.85 1.278 1.938 1.945 2.666.164.18.434.351.464.47.086.344-.226.757-.19.986zM7.272 10.789c-.285-.163-.353-.88-.687-.9-.479-.03-.392.93-.39 1.49-.329-.298-.387-1.219-.145-1.692-.276-.135-.399.15-.552.25.197-1.428 2.09-.662 1.774.852zM19.846 11.999c-.424.806-1.023 1.694-2.265 1.72-.026-.26-.045-.657.001-.814.95-.091 1.537-.574 2.264-.906zM13.892 12.522c.793.416 2.25.461 3.327.43.058.236.056.527.058.815-1.384.07-3.022-.274-3.385-1.245zM13.742 13.299c.548 1.376 2.431 1.218 4.02 1.18-.07.178-.221.39-.41.466-.509.207-1.913.364-2.62-.011-.448-.239-.736-.777-.981-1.093-.12-.152-.71-.541-.01-.542z" clip-rule="evenodd"/>
  <path fill="#81B0C4" fill-rule="evenodd" d="M19.2 20.89c-.643 1.102-1.258 2.233-2.021 3.205.32-.94.457-2.515.505-3.716.67-.313 1.242.07 1.517.511z" clip-rule="evenodd"/>
  <path fill="#231F20" fill-rule="evenodd" d="M22.662 24.85c-.72.143-1.226.843-1.929.798.386-.544 1.063-.773 1.929-.799zM22.98 25.976c-.588.062-1.277.157-1.872.108.282-.43 1.367-.282 1.871-.108zM23.183 26.948c-.66.014-1.48.001-2.107-.052.37-.398 1.679-.147 2.107.052z" clip-rule="evenodd"/>
  <path fill="#DCD9D8" fill-rule="evenodd" d="M17.96 29.607c.094.828.422 1.668.381 2.575-.365.123-.574.23-1.063.23-.034-.771-.137-1.95-.106-2.685.24.016.594-.172.787-.12z" clip-rule="evenodd"/>
  <path fill="#F0D6B7" fill-rule="evenodd" d="M16.896 17.397c-.331.216-.614.486-.932.717-.705.035-1.09-.049-1.608-.454.008-.032.06-.018.062-.058.755.337 1.715-.137 2.478-.205z" clip-rule="evenodd"/>
  <path fill="#81B0C4" fill-rule="evenodd" d="M12.932 22.544c.207-.899 1.02-1.364 1.758-1.86.762.968 1.226 2.211 1.736 3.412-1.206-.364-2.438-.954-3.494-1.552z" clip-rule="evenodd"/>
  <path fill="#231F20" fill-rule="evenodd" d="M17.172 29.727c-.031.735.072 1.914.106 2.685.489 0 .699-.107 1.063-.23.041-.907-.287-1.747-.382-2.575-.193-.052-.547.136-.787.12zm-7.61-4.18c.322 2.962.79 5.452 1.645 8.075 1.9.577 4.19.628 5.87.107-.309-1.48-.174-3.283-.354-4.863-.136-1.188-.066-2.383-.253-3.594-2.035-.423-4.91-.099-6.908.275zm7.39-.256c-.018 1.272.056 2.527.153 3.8.489-.073.82-.122 1.274-.221-.147-1.227-.129-2.606-.429-3.691-.347.003-.653-.004-.999.112zm2.478-.206c-.232-.053-.502-.002-.724.003.105 1.037.357 2.181.446 3.27.349.01.535-.154.822-.209.015-.956-.084-2.272-.544-3.064zm3.752 3.43c.727-.177 1.184-1.067.98-1.981-.136-.614-.379-1.77-.639-2.164-.192-.29-.713-.67-1.128-.404-.677.433-1.868.558-2.362 1.083.248.823.324 1.954.426 2.998.846.053 1.885-.233 2.588.07-.49.16-1.127.16-1.551.392.346.167 1.157.133 1.686.005zm-6.756-4.42c-.51-1.2-.974-2.443-1.736-3.41-.738.495-1.55.96-1.758 1.86 1.056.597 2.288 1.187 3.494 1.55zm1.258-3.716c-.048 1.2-.185 2.775-.505 3.716.763-.972 1.378-2.104 2.022-3.205-.275-.44-.848-.824-1.517-.51zm-1.426-.506c-.29-.032-.534.332-.91.175-.087.095-.165.198-.253.291.83 1 1.208 2.42 1.85 3.596.343-1.13.304-2.367.38-3.6-.473.03-.736-.427-1.067-.462zm-.917-1.21c-.03.342.049.454.118.847 1.126.352.93-1.546-.118-.848zm-1.25-.41a6.941 6.941 0 0 0-1.84-.674c-.778-.149-.705 1.06-.672 1.78.026.572.323 1.175.452 1.555.06.177.074.365.225.4.268.062 1.15-.29 1.402-.428.532-.29.945-.75 1.397-1.06l.018-.451a2.379 2.379 0 0 0-.985-.25c.27-.135.669-.133.915-.295l.007-.18c-.45-.035-.621-.235-.918-.398zm-4.635-.843c-.403.41 1.13.967 1.618.997-.003-.26.147-.503.117-.689-.58-.102-1.341-.034-1.735-.308zm4.962.192c-.002.04-.054.026-.062.058.518.405.903.489 1.608.454.318-.23.6-.5.932-.717-.763.068-1.723.542-2.478.205zm4.555 1.381c-.022-.454-.141-1.388-.422-1.552-.59-.344-1.637.695-2.081.853.048.14.128.25.134.427.263-.064.582-.02.81.091-.263.03-.555.028-.73.153-.063.185.017.436-.026.692.625.176 1.338.27 2.127.293.154-.2.206-.58.188-.957zM8.778 17.806c-.127-.09-.983-1.204-1.1-1.158-1.548.611-2.996 1.667-4.29 2.666 1.233 2.647 1.731 5.89 1.82 9.016 1.413.66 2.654 1.613 4.572 1.713-.222-1.57-.425-2.97-.55-4.449-.483-.203-1.174.01-1.625-.063-.004-.543.689-.238.746-.603.044-.277-.38-.298-.242-.733.352.128.537.411.913.517.344-.751-.005-2.08.045-2.709.01-.118.059-.653.323-.56.234.084-.013 1.425.012 2.02.024.547-.066 1.077.156 1.42a52.955 52.955 0 0 1 5.74-.47c-.44-.189-.964-.368-1.539-.692-.311-.175-1.293-.54-1.383-.836-.143-.472.377-.723.465-1.127-.935.51-1.117-.489-1.339-1.197-.2-.64-.314-1.12-.364-1.49-.805-.384-1.667-.773-2.36-1.265zm9.377-1.023c1.29-.626 1.522 2.338 1.017 3.293.078.285.347.394.456.65-.72 1.29-1.52 2.493-2.254 3.768.547-.34 1.327-.06 1.97-.316.235-.093.405-.63.583-1.061.49-1.184 1.004-2.678 1.233-3.808.051-.257.192-.818.16-1.048-.056-.41-.613-.714-.896-.968-.522-.469-.85-.881-1.395-1.32-.22.326-.694.545-.874.81zM5.827 5.342c-.615.676-.486 1.943-.412 2.845 1.112-.699 2.586.055 2.573 1.244.53-.014.198-.662.102-1.08-.314-1.365.528-2.847.038-4.095-.952.072-1.734.461-2.301 1.086zm4.399-3.926C8.834 1.81 7.05 2.82 6.478 4.072c.443-.065.75-.288 1.188-.316.165-.01.381.07.57.022.379-.093.698-.941.983-1.257.278-.308.613-.44.841-.72.147-.071.365-.066.373-.287-.064-.068-.13-.12-.207-.098zm7.245.37C16.026.973 13.58.36 12.044 1.126c-1.24.618-2.916 1.64-3.487 2.937.534 1.25-.158 2.397-.202 3.667-.024.676.318 1.265.344 2.001-.183.301-.74.338-1.127.318-.13-.65-.358-1.382-1.028-1.456-.948-.103-1.641.681-1.684 1.501-.051.965.74 2.563 1.863 2.452.433-.043.54-.477 1.012-.473.256.511-.395.671-.462 1.037-.017.094.054.463.096.636.203.842.658 1.932 1.105 2.573.568.813 1.683.936 2.882 1.015.215-.461 1.004-.423 1.518-.303-.616-.244-1.19-.836-1.664-1.36-.546-.6-1.098-1.245-1.126-2.03 1.03 1.43 1.883 2.678 3.757 3.308 1.418.475 3.075-.219 4.165-.984.452-.318.722-.823 1.044-1.285 1.202-1.73 1.764-4.2 1.64-6.593-.05-.987-.048-1.97-.38-2.635-.346-.694-1.516-1.316-2.202-.688-.127-.675.57-1.093 1.389-.85-.584-.753-1.197-1.658-2.026-2.126zm2.691 22.274c1.129-.561 3.238-1.51 3.946.002.26.557.567 1.5.702 2.075.192.812-.207 2.519-1.041 2.791-.737.24-1.598.226-2.485.048a1.354 1.354 0 0 1-.303-.397c-.634-.024-1.228.034-1.728.295.047.469-.27.544-.567.64-.22.875.44 2.016.282 2.813-.113.567-.811.655-1.324.761-.017.316.022.58.057.846-.117.433-.644.679-1.143.74-1.641.197-4.133.285-5.712-.282-.44-1.081-.788-2.395-1.155-3.63-1.54.165-2.785-.664-3.959-1.207-.406-.188-.968-.292-1.12-.616-.148-.313-.087-.913-.124-1.48-.093-1.449-.172-2.846-.555-4.329-.172-.665-.471-1.253-.68-1.894-.193-.594-.53-1.329-.618-1.922-.13-.878.697-.927 1.226-1.307.817-.589 1.459-.915 2.344-1.446.263-.157 1.054-.555 1.144-.739.178-.363-.307-.876-.437-1.161-.206-.45-.313-.834-.342-1.278a2.466 2.466 0 0 1-1.646-1.058c-.563-.825-.953-2.351-.466-3.512.038-.092.228-.272.256-.412.056-.276-.104-.644-.114-.938-.051-1.51.255-2.81 1.271-3.264.413-1.643 1.888-2.19 3.279-3.006.52-.305 1.093-.5 1.685-.718 2.122-.78 5.38-.634 7.141.699.747.565 1.941 1.758 2.369 2.622 1.128 2.28 1.047 6.091.259 8.865-.107.372-.26.92-.475 1.367-.15.313-.616.938-.559 1.213.058.286 1.061 1.047 1.276 1.255.388.373 1.124.87 1.183 1.34.064.503-.22 1.19-.365 1.673-.483 1.616-.954 3.11-1.502 4.55z" clip-rule="evenodd"/>
  <path fill="#F7E4CD" fill-rule="evenodd" d="M12.63 12.874c.062-.082.399-.206.87.021 0 0-.558.093-.512 1.024l-.233-.046s-.24-.845-.124-1z" clip-rule="evenodd"/>
  <path fill="#1D1919" fill-rule="evenodd" d="M16.71 20.875a.256.256 0 1 1-.511 0 .256.256 0 0 1 .512 0zM16.966 22.061a.256.256 0 1 1-.511 0 .256.256 0 0 1 .511 0z" clip-rule="evenodd"/>
</svg>
