<svg xmlns="http://www.w3.org/2000/svg" xmlns:xlink="http://www.w3.org/1999/xlink" enable-background="new 0 0 512 512" height="512" version="1.1" width="512" xml:space="preserve" style=""><rect id="backgroundrect" width="100%" height="100%" x="0" y="0" fill="none" stroke="none"/><g class="currentLayer" style=""><title>Layer 1</title><path d="M438.247,183.129L261.315,6.196h-15.192h-5.633H73.888V506h364.44V183.16L438.247,183.129z M261.315,35.645  l137.153,137.152H261.315V35.645z M94.713,485.175V27.021H240.49v166.601h177.014v291.552H94.713z" fill="#37404D" id="svg_1" class="" stroke="#ffffff" stroke-opacity="1"/><path fill="#4a90d6" fill-opacity="1" stroke="#222222" stroke-opacity="1" stroke-width="2" stroke-dasharray="none" stroke-linejoin="round" stroke-linecap="butt" stroke-dashoffset="" fill-rule="nonzero" opacity="1" marker-start="" marker-mid="" marker-end="" id="svg_2" d="M94.53976469694558,26.789634193620174 " style="color: rgb(0, 0, 0);"/><path fill="#4a90d6" fill-opacity="1" stroke="#222222" stroke-opacity="1" stroke-width="2" stroke-dasharray="none" stroke-linejoin="round" stroke-linecap="butt" stroke-dashoffset="" fill-rule="nonzero" opacity="1" marker-start="" marker-mid="" marker-end="" id="svg_3" d="M 94.5905519106609 26.84041995430203 C 94.5905519106609 26.84041995430203 94.5905519106609 484.2299642359193 94.5905519106609 484.2299642359193" style="color: rgb(0, 0, 0);"/><path fill="#ffffff" fill-opacity="1" stroke="none" stroke-width="2" stroke-dasharray="none" stroke-linejoin="round" stroke-linecap="butt" stroke-dashoffset="" fill-rule="nonzero" opacity="1" marker-start="" marker-mid="" marker-end="" id="svg_4" d="M 417.5971612736188 193.32086837110342 C 417.5971612736188 193.32086837110342 418.1558205034016 484.3823270879266 418.1558205034016 484.3823270879266 C 418.1558205034016 484.3823270879266 93.0161487698295 484.3823270879266 93.57480799961223 484.3823270879266 C 94.13346722939497 484.3823270879266 95.25078568896049 26.434123576526588 95.25078568896049 26.434123576526588 C 95.25078568896049 26.434123576526588 239.94352620269797 26.992782806309354 239.94352620269797 26.992782806309354 C 239.94352620269797 26.992782806309354 239.38486697291518 192.91457405179204 239.38486697291518 192.91457405179204" style="color: rgb(0, 0, 0);" class=""/><path fill="#ffffff" stroke="none" stroke-width="2" stroke-linejoin="round" stroke-dashoffset="" fill-rule="nonzero" marker-start="" marker-mid="" marker-end="" id="svg_5" d="M260.7363519759778,172.3727038518385 L260.7363519759778,36.05987354970758 L397.0491822781124,172.3727038518385 L260.7363519759778,172.3727038518385 z" style="color: rgb(0, 0, 0);" class=""/></g></svg>