<svg width="32" height="32" viewBox="0 0 32 32" fill="none" xmlns="http://www.w3.org/2000/svg">
<mask id="mask0" mask-type="alpha" maskUnits="userSpaceOnUse" x="3" y="0" width="26" height="32">
<path d="M3.76855 31.9844H28.2495V0H3.76855V31.9844Z" fill="#D6E3F1"/>
</mask>
<g mask="url(#mask0)">
<path fill-rule="evenodd" clip-rule="evenodd" d="M20.7521 1.97047C20.2657 0.473084 18.6575 -0.346321 17.1604 0.140389C15.663 0.626837 14.8436 2.23495 15.3303 3.73208L22.701 26.4099C23.2072 27.8086 24.7182 28.5947 26.1686 28.1773C27.6815 27.7417 28.6037 26.1349 28.121 24.6491C28.1026 24.5924 20.7521 1.97047 20.7521 1.97047Z" fill="#D6E3F1"/>
<path fill-rule="evenodd" clip-rule="evenodd" d="M9.33098 5.68129C8.84426 4.18416 7.23615 3.36475 5.73903 3.8512C4.24164 4.33765 3.42223 5.94576 3.90894 7.44315L11.2797 30.121C11.7858 31.5197 13.2968 32.3058 14.7472 31.8881C16.2601 31.4528 17.1824 29.846 16.6996 28.3599C16.6812 28.3035 9.33098 5.68129 9.33098 5.68129Z" fill="#D6E3F1"/>
</g>
<path fill-rule="evenodd" clip-rule="evenodd" d="M30.0296 20.7517C31.527 20.2653 32.3462 18.6572 31.8597 17.1598C31.3733 15.6627 29.7652 14.8433 28.268 15.3297L5.5902 22.7007C4.19147 23.2066 3.40538 24.7176 3.82283 26.168C4.25837 27.6809 5.86517 28.6031 7.35102 28.1204C7.40769 28.102 30.0296 20.7517 30.0296 20.7517Z" fill="#D6E3F1"/>
<path fill-rule="evenodd" clip-rule="evenodd" d="M10.3168 27.1574C11.7929 26.6778 13.6954 26.0596 15.737 25.3963C15.2573 23.9202 14.6392 22.0174 13.9756 19.9756L8.55518 21.7375L10.3168 27.1574Z" fill="#D6E3F1"/>
<path fill-rule="evenodd" clip-rule="evenodd" d="M21.7375 23.4465C23.7866 22.7809 25.6912 22.1619 27.1576 21.6854C26.678 20.2093 26.0596 18.306 25.396 16.2637L19.9756 18.0255L21.7375 23.4465Z" fill="#D6E3F1"/>
<path fill-rule="evenodd" clip-rule="evenodd" d="M26.3188 9.33085C27.8159 8.8444 28.6353 7.23629 28.1489 5.7389C27.6624 4.24178 26.0543 3.42237 24.5569 3.90882L1.87912 11.2798C0.480386 11.7857 -0.305697 13.2967 0.112008 14.7471C0.547293 16.26 2.15409 17.1822 3.6402 16.6995C3.69661 16.6811 26.3188 9.33085 26.3188 9.33085Z" fill="#D6E3F1"/>
<path fill-rule="evenodd" clip-rule="evenodd" d="M6.60464 15.7367C8.08078 15.2571 9.9838 14.6387 12.0256 13.9754C11.36 11.926 10.741 10.0214 10.2645 8.55469L4.84277 10.3168L6.60464 15.7367Z" fill="#D6E3F1"/>
<path fill-rule="evenodd" clip-rule="evenodd" d="M18.0255 12.0252C20.0752 11.3593 21.9801 10.7403 23.4468 10.2636C22.7809 8.21387 22.1619 6.30875 21.6852 4.8418L16.2637 6.60392L18.0255 12.0252Z" fill="#D6E3F1"/>
</svg>
