<svg xmlns="http://www.w3.org/2000/svg" width="32" height="26" fill="none">
  <path fill="#41ABE1" fill-rule="evenodd" d="M32 3.08c-1.18.52-2.444.873-3.771 1.03A6.565 6.565 0 0 0 31.112.477a13.154 13.154 0 0 1-4.168 1.595A6.56 6.56 0 0 0 22.151 0a6.567 6.567 0 0 0-6.392 8.058c-5.457-.272-10.293-2.888-13.53-6.86a6.544 6.544 0 0 0-.888 3.3 6.554 6.554 0 0 0 2.922 5.46 6.55 6.55 0 0 1-2.974-.82v.08a6.567 6.567 0 0 0 5.266 6.436 6.58 6.58 0 0 1-2.965.11 6.573 6.573 0 0 0 6.13 4.559 13.167 13.167 0 0 1-8.154 2.812c-.53 0-1.05-.034-1.566-.091a18.577 18.577 0 0 0 10.064 2.95c12.073 0 18.675-10.001 18.675-18.675 0-.287-.004-.569-.019-.85a13.277 13.277 0 0 0 3.275-3.4l.005.01z" clip-rule="evenodd"/>
</svg>
